<svg xmlns="http://www.w3.org/2000/svg" xmlns:xlink="http://www.w3.org/1999/xlink" width="150" height="30" viewBox="0 0 150 30">
  <defs>
    <clipPath id="clip-path">
      <rect id="Прямоугольник_64" data-name="Прямоугольник 64" width="150" height="30" transform="translate(5050 -698)" fill="#fff" stroke="#707070" stroke-width="1"/>
    </clipPath>
  </defs>
  <g id="Лого" transform="translate(-5050 698)" clip-path="url(#clip-path)">
    <g id="Layer_x0020_1" transform="translate(4718.495 -744.265)">
      <g id="_622493384">
        <path id="Контур_84" data-name="Контур 84" d="M375.507,59.2h-7.424l1.658-2.722H373.9l-2.722-4.5L364.1,63.579h-3.514L369.1,49.4a3.806,3.806,0,0,1,1.064-1.114,2.023,2.023,0,0,1,1.015-.421,1.751,1.751,0,0,1,1.064.322,4.027,4.027,0,0,1,1.138,1.188l8.34,14.181H378.2l-2.648-4.38Zm15,4.405a7.521,7.521,0,0,1-5.89-2.5,8.087,8.087,0,0,1-2-5.494,7.527,7.527,0,0,1,1.93-5.271,7.633,7.633,0,0,1,5.964-2.4h8.835V50.66H390.5a4.981,4.981,0,0,0-3.811,1.559,5.178,5.178,0,0,0-1.386,3.391,5.091,5.091,0,0,0,1.213,3.613,4.947,4.947,0,0,0,3.96,1.658h8.835V63.6H390.5ZM409.932,50.66V63.6H407.21V50.66h-6.187V47.938h15.1V50.66h-6.187ZM420.7,63.6h-2.722V47.938H420.7Zm9.083,0h4.034l-9.355-7.672,9.355-7.994h-4.034l-7.8,6.682a1.382,1.382,0,0,0,0,2.5l7.8,6.509ZM443.07,50.66a4.981,4.981,0,0,0-3.811,1.559,5.178,5.178,0,0,0-1.386,3.391,5.091,5.091,0,0,0,1.213,3.613,4.947,4.947,0,0,0,3.96,1.658h4.38A5.111,5.111,0,1,0,447.4,50.66H443.07Zm0,12.943a7.521,7.521,0,0,1-5.89-2.5,8.087,8.087,0,0,1-2-5.494,7.527,7.527,0,0,1,1.93-5.271,7.633,7.633,0,0,1,5.964-2.4h4.38a7.633,7.633,0,0,1,5.964,2.4,7.527,7.527,0,0,1,1.93,5.271,8.087,8.087,0,0,1-2,5.494,7.441,7.441,0,0,1-5.89,2.5Zm24.253-.817-5.247-10.122L459.8,63.653h-3.069l3.49-14.379a1.762,1.762,0,0,1,1.633-1.559c.619-.049,1.213.47,1.757,1.534L468.858,59.5l5.222-10.271c.544-1.064,1.138-1.584,1.757-1.534a1.761,1.761,0,0,1,1.633,1.534l3.49,14.4h-3.069L475.615,52.64l-5.247,10.122a1.668,1.668,0,0,1-1.485,1.039,1.7,1.7,0,0,1-1.584-1.039Z" fill="#2b2a29"/>
        <path id="Контур_85" data-name="Контур 85" d="M349.621,68.677,346.354,74c0,.025-.025.025-.025.049v.025h0a1.937,1.937,0,0,1-3.292-.049h0L339.993,69.1a9.442,9.442,0,0,0,4.356-1.93,3.662,3.662,0,0,0,3.366,2.054,4.485,4.485,0,0,0,1.955-.495ZM341.6,48.532a1.976,1.976,0,0,0-1.683-.965H336.7a1.954,1.954,0,0,0-1.683.94h0L331.8,53.729h0a1.888,1.888,0,0,0-.3,1.039,2.034,2.034,0,0,0,.371,1.163h0l3.292,5.37a6.588,6.588,0,0,1,1.584-.965,32.074,32.074,0,0,1,7.573-2.128v-.916a9.58,9.58,0,0,0-.4-3.168,1.736,1.736,0,0,0-1.856-1.089,1.853,1.853,0,0,0-1.584.619,7.684,7.684,0,0,0-.965,1.93c-.569,1.609-1.411,2.425-2.524,2.425a2.184,2.184,0,0,1-1.485-.569,1.735,1.735,0,0,1-.643-1.411,3.027,3.027,0,0,1,.792-1.881,5.938,5.938,0,0,1,2.549-1.584,13.257,13.257,0,0,1,4.455-.643c.371,0,.742,0,1.089.025l-2.128-3.465Zm7.6,12.349,1.881,3.069c.594.94.718,1.188.124,2.128l-.346.569a2.362,2.362,0,0,1-.52.1c-.495,0-.817-.148-.94-.47a4.693,4.693,0,0,1-.223-1.435V60.906Zm-4.9-1.138a8.672,8.672,0,0,0-4.034,1.361,3.686,3.686,0,0,0-1.609,3.316,2.94,2.94,0,0,0,.619,1.955,2.211,2.211,0,0,0,1.757.767,4.392,4.392,0,0,0,3.267-1.881Z" fill="#2b2a29" fill-rule="evenodd"/>
        <path id="Контур_86" data-name="Контур 86" d="M356.847,47.566a1.28,1.28,0,0,1,1.114,1.98l-4.925,8.018a1.3,1.3,0,0,1-2.227,0l-4.925-8.018A1.28,1.28,0,0,1,347,47.566h9.85Z" fill="#008b9a" fill-rule="evenodd"/>
        <path id="Контур_87" data-name="Контур 87" d="M360.262,68.776h.866v.52a1.212,1.212,0,0,1,.445-.421,1.384,1.384,0,0,1,.643-.173,1.361,1.361,0,0,1,1.039.47,2.009,2.009,0,0,1,.421,1.336,2.034,2.034,0,0,1-.421,1.361,1.35,1.35,0,0,1-1.039.495,1.151,1.151,0,0,1-.52-.124,1.644,1.644,0,0,1-.495-.4V73.6h-.916V68.776Zm.916,1.683a1.347,1.347,0,0,0,.223.866.727.727,0,0,0,1.114.025,1.269,1.269,0,0,0,.223-.841,1.239,1.239,0,0,0-.223-.817.692.692,0,0,0-.544-.272.669.669,0,0,0-.569.272A1.136,1.136,0,0,0,361.178,70.459Zm5.247.693.916.148a1.407,1.407,0,0,1-.569.767,1.65,1.65,0,0,1-.965.272,1.5,1.5,0,0,1-1.336-.594,2.067,2.067,0,0,1-.346-1.213,1.961,1.961,0,0,1,.445-1.361,1.516,1.516,0,0,1,1.138-.495,1.554,1.554,0,0,1,1.237.52,2.247,2.247,0,0,1,.421,1.584h-2.3a.884.884,0,0,0,.223.643.728.728,0,0,0,.544.223.608.608,0,0,0,.371-.124A.68.68,0,0,0,366.425,71.152Zm.049-.94a.926.926,0,0,0-.2-.619.585.585,0,0,0-.47-.2.623.623,0,0,0-.495.223.9.9,0,0,0-.2.594h1.361Zm1.633-1.435h.916v1.435a.491.491,0,0,0,.322-.148,1.33,1.33,0,0,0,.223-.495,1.342,1.342,0,0,1,.4-.668.941.941,0,0,1,.544-.148,2.447,2.447,0,0,1,.371.025v.619a.945.945,0,0,0-.47.074.9.9,0,0,0-.223.421.858.858,0,0,1-.47.594,1.2,1.2,0,0,1,.742.767c0,.025.025.049.025.074l.52.965h-.99l-.47-1.015a1.209,1.209,0,0,0-.247-.4.528.528,0,0,0-.3-.074V72.29h-.916V68.8Zm3.737,0h3.094v3.49h-.916V69.518H372.76v1.559a1.758,1.758,0,0,1-.148.841.95.95,0,0,1-.3.322,1.417,1.417,0,0,1-.544.074c-.148,0-.346-.025-.594-.049V71.6h.371c.124,0,.2-.049.223-.124a3.165,3.165,0,0,0,.049-.693v-2Zm4.727,1.064-.841-.148a1.176,1.176,0,0,1,.495-.742,1.661,1.661,0,0,1,1.015-.247,2.119,2.119,0,0,1,.916.148.9.9,0,0,1,.421.371,1.989,1.989,0,0,1,.124.817v1.089a3.854,3.854,0,0,0,.049.668,1.374,1.374,0,0,0,.173.47h-.916c-.025-.074-.049-.148-.1-.272a.247.247,0,0,1-.025-.1,1.635,1.635,0,0,1-.495.346,1.468,1.468,0,0,1-.569.124,1.125,1.125,0,0,1-.841-.3,1.029,1.029,0,0,1-.322-.742.915.915,0,0,1,.148-.52.9.9,0,0,1,.4-.346,4.613,4.613,0,0,1,.742-.223,4.516,4.516,0,0,0,.891-.223v-.1a.512.512,0,0,0-.124-.371.8.8,0,0,0-.495-.124.628.628,0,0,0-.4.1.606.606,0,0,0-.223.346Zm1.237.742c-.124.049-.3.074-.569.148a1.7,1.7,0,0,0-.495.148.361.361,0,0,0-.173.322.489.489,0,0,0,.148.346.5.5,0,0,0,.371.148.694.694,0,0,0,.47-.173.532.532,0,0,0,.223-.3,1.9,1.9,0,0,0,.025-.445v-.2Zm1.831-1.807h1.138l.866,2.425.866-2.425h1.138v3.49h-.792v-2.3l-.841,2.3h-.792l-.817-2.3v2.3h-.792v-3.49Zm4.925,0h.916v1.287h1.312V68.776h.916v3.49h-.916v-1.46h-1.312v1.46h-.916Zm3.885,1.683a1.977,1.977,0,0,1,.223-.891,1.672,1.672,0,0,1,.643-.668,1.955,1.955,0,0,1,.94-.223,1.7,1.7,0,0,1,1.287.52,1.735,1.735,0,0,1,.495,1.312,1.791,1.791,0,0,1-.52,1.312,1.735,1.735,0,0,1-1.287.52,2,2,0,0,1-.916-.223,1.406,1.406,0,0,1-.668-.643,2.121,2.121,0,0,1-.223-1.015Zm.94.049a1.088,1.088,0,0,0,.247.792.843.843,0,0,0,.619.272.753.753,0,0,0,.594-.272,1.088,1.088,0,0,0,.247-.792,1.127,1.127,0,0,0-.247-.792.832.832,0,0,0-.594-.272.843.843,0,0,0-.619.272A1.088,1.088,0,0,0,389.391,70.508Zm3.267.47v-.916h1.807v.916Zm2.3-2.2h3.094v3.49h-.916V69.518h-1.262v2.747h-.916Zm4.083,0h.866v.52a1.212,1.212,0,0,1,.445-.421A1.384,1.384,0,0,1,401,68.7a1.361,1.361,0,0,1,1.039.47,2.009,2.009,0,0,1,.421,1.336,2.034,2.034,0,0,1-.421,1.361,1.35,1.35,0,0,1-1.039.495,1.15,1.15,0,0,1-.52-.124,1.644,1.644,0,0,1-.495-.4V73.6h-.916V68.776Zm.916,1.683a1.347,1.347,0,0,0,.223.866.727.727,0,0,0,1.114.025,1.269,1.269,0,0,0,.223-.841,1.239,1.239,0,0,0-.223-.817.692.692,0,0,0-.544-.272.669.669,0,0,0-.569.272A1.136,1.136,0,0,0,399.959,70.459Zm3.019,0a1.977,1.977,0,0,1,.223-.891,1.672,1.672,0,0,1,.643-.668,1.955,1.955,0,0,1,.94-.223,1.7,1.7,0,0,1,1.287.52,1.735,1.735,0,0,1,.495,1.312,1.791,1.791,0,0,1-.52,1.312,1.735,1.735,0,0,1-1.287.52,2,2,0,0,1-.916-.223,1.406,1.406,0,0,1-.668-.643,2.12,2.12,0,0,1-.223-1.015Zm.94.049a1.088,1.088,0,0,0,.247.792.843.843,0,0,0,.619.272.753.753,0,0,0,.594-.272,1.088,1.088,0,0,0,.247-.792,1.127,1.127,0,0,0-.247-.792.832.832,0,0,0-.594-.272.843.843,0,0,0-.619.272A1.088,1.088,0,0,0,403.918,70.508Zm3.366-1.732h.891v2.2l1.411-2.2h.916v3.49h-.891V70.038l-1.435,2.227h-.891Zm5.1,2.054v-.594a1.315,1.315,0,0,0,.346-.025.385.385,0,0,0,.2-.148.372.372,0,0,0,.1-.272.457.457,0,0,0-.124-.3.434.434,0,0,0-.371-.148.685.685,0,0,0-.322.074c-.1.049-.173.173-.272.371l-.792-.173a1.106,1.106,0,0,1,.495-.693,1.7,1.7,0,0,1,.891-.223,1.408,1.408,0,0,1,.965.3.952.952,0,0,1,.346.718.691.691,0,0,1-.148.445,1.538,1.538,0,0,1-.47.346,1.152,1.152,0,0,1,.569.322.815.815,0,0,1,.2.544.859.859,0,0,1-.371.693,1.729,1.729,0,0,1-1.089.3A1.394,1.394,0,0,1,411,71.4l.841-.148a.7.7,0,0,0,.668.52.582.582,0,0,0,.421-.148.436.436,0,0,0,.148-.322.361.361,0,0,0-.173-.322.708.708,0,0,0-.421-.124h-.148Zm2.4-2.054h2.029a1.65,1.65,0,0,1,.94.223.814.814,0,0,1,.322.693.777.777,0,0,1-.173.52.828.828,0,0,1-.421.3.924.924,0,0,1,.544.322.891.891,0,0,1,.173.544.847.847,0,0,1-.3.668,1.321,1.321,0,0,1-.891.247h-2.2V68.8Zm.94,1.46h.594a1.666,1.666,0,0,0,.619-.1.4.4,0,0,0,.2-.346.336.336,0,0,0-.173-.322,1.325,1.325,0,0,0-.643-.1h-.594Zm0,1.46h.718a1.114,1.114,0,0,0,.569-.1.351.351,0,0,0,.173-.346.344.344,0,0,0-.2-.346,2.021,2.021,0,0,0-.817-.1h-.47V71.7Zm2.9-1.213a1.977,1.977,0,0,1,.223-.891,1.672,1.672,0,0,1,.643-.668,1.955,1.955,0,0,1,.94-.223,1.7,1.7,0,0,1,1.287.52,1.735,1.735,0,0,1,.495,1.312,1.791,1.791,0,0,1-.52,1.312,1.735,1.735,0,0,1-1.287.52,2,2,0,0,1-.916-.223,1.406,1.406,0,0,1-.668-.643,2.12,2.12,0,0,1-.223-1.015Zm.94.049a1.088,1.088,0,0,0,.247.792.843.843,0,0,0,.619.272.753.753,0,0,0,.594-.272,1.088,1.088,0,0,0,.247-.792,1.127,1.127,0,0,0-.247-.792.832.832,0,0,0-.594-.272.843.843,0,0,0-.619.272A1.088,1.088,0,0,0,419.559,70.533Zm6.162,1.757h-2.648v.916h-.742V71.523h.371a2.088,2.088,0,0,0,.4-.817,8.076,8.076,0,0,0,.173-1.906h2.821v2.722h.371v1.683h-.742Zm-.544-.767v-1.98h-1.114a3.753,3.753,0,0,1-.47,1.98Zm4.875-1.708-.916.173a.746.746,0,0,0-.2-.421.582.582,0,0,0-.421-.148.637.637,0,0,0-.544.247,1.13,1.13,0,0,0-.2.792,1.43,1.43,0,0,0,.2.866.684.684,0,0,0,.569.247.582.582,0,0,0,.421-.148.855.855,0,0,0,.247-.52l.916.148a1.546,1.546,0,0,1-.544.94,1.607,1.607,0,0,1-1.064.322,1.55,1.55,0,0,1-1.213-.47,2.227,2.227,0,0,1,0-2.673,1.6,1.6,0,0,1,1.237-.47,1.761,1.761,0,0,1,1.015.272,1.615,1.615,0,0,1,.544.841Zm.3-1.039h3.168v.742H432.4v2.747h-.916V69.518h-1.114v-.742Zm3.712,0h2.029a1.65,1.65,0,0,1,.94.223.814.814,0,0,1,.322.693.777.777,0,0,1-.173.52.828.828,0,0,1-.421.3.924.924,0,0,1,.544.322.891.891,0,0,1,.173.544.847.847,0,0,1-.3.668,1.321,1.321,0,0,1-.891.247h-2.2V68.8Zm.94,1.46h.594a1.666,1.666,0,0,0,.619-.1.4.4,0,0,0,.2-.346.336.336,0,0,0-.173-.322,1.325,1.325,0,0,0-.643-.1H435Zm0,1.46h.718a1.114,1.114,0,0,0,.569-.1.351.351,0,0,0,.173-.346.344.344,0,0,0-.2-.346,2.021,2.021,0,0,0-.817-.1h-.47V71.7Zm5.123-.52.916.148a1.407,1.407,0,0,1-.569.767,1.65,1.65,0,0,1-.965.272,1.5,1.5,0,0,1-1.336-.594,2.067,2.067,0,0,1-.346-1.213,1.961,1.961,0,0,1,.445-1.361,1.516,1.516,0,0,1,1.138-.495,1.554,1.554,0,0,1,1.237.52,2.247,2.247,0,0,1,.421,1.584h-2.3a.884.884,0,0,0,.223.643.728.728,0,0,0,.544.223.608.608,0,0,0,.371-.124A.68.68,0,0,0,440.125,71.176Zm.049-.94a.926.926,0,0,0-.2-.619.585.585,0,0,0-.47-.2.623.623,0,0,0-.495.223.9.9,0,0,0-.2.594h1.361Zm1.633-1.435h.916v1.287h1.312V68.8h.916v3.49h-.916V70.83h-1.312v1.46h-.916Zm4.059,0h.916v1.287h1.312V68.8h.916v3.49h-.916V70.83h-1.312v1.46h-.916Zm4.8,1.064-.841-.148a1.176,1.176,0,0,1,.495-.742,1.661,1.661,0,0,1,1.015-.247,2.119,2.119,0,0,1,.916.148.9.9,0,0,1,.421.371,1.989,1.989,0,0,1,.124.817v1.089a3.854,3.854,0,0,0,.049.668,1.374,1.374,0,0,0,.173.47H452.1c-.025-.074-.049-.148-.1-.272a.247.247,0,0,1-.025-.1,1.635,1.635,0,0,1-.495.346,1.468,1.468,0,0,1-.569.124,1.164,1.164,0,0,1-.841-.3,1.029,1.029,0,0,1-.322-.742.915.915,0,0,1,.148-.52.9.9,0,0,1,.4-.346,4.613,4.613,0,0,1,.742-.223,4.516,4.516,0,0,0,.891-.223v-.1a.512.512,0,0,0-.124-.371.8.8,0,0,0-.495-.124.628.628,0,0,0-.4.1.606.606,0,0,0-.223.346Zm1.237.742c-.124.049-.3.074-.569.148a1.7,1.7,0,0,0-.495.148.361.361,0,0,0-.173.322.489.489,0,0,0,.148.346.5.5,0,0,0,.371.148.694.694,0,0,0,.47-.173.532.532,0,0,0,.223-.3,1.9,1.9,0,0,0,.025-.445v-.2Zm4.8-1.807v3.49h-.916V70.83h-.074a1.034,1.034,0,0,0-.445.074.97.97,0,0,0-.322.322l-.049.074-.619.965h-1.064l.668-1.015a1.158,1.158,0,0,1,.52-.495.921.921,0,0,1-.619-.3,1.073,1.073,0,0,1-.247-.693,1.025,1.025,0,0,1,.148-.569.779.779,0,0,1,.421-.322,3.154,3.154,0,0,1,.792-.074Zm-.916.594h-.668a.914.914,0,0,0-.52.1.385.385,0,0,0-.148.346.374.374,0,0,0,.173.346,1.068,1.068,0,0,0,.544.1h.594v-.891Zm5.742-1.93h.916v1.782a1.5,1.5,0,0,1,.4-.4,1.151,1.151,0,0,1,.52-.124,1.03,1.03,0,0,1,.916.544,2.261,2.261,0,0,1,.346,1.312,2.044,2.044,0,0,1-.4,1.287,1.159,1.159,0,0,1-.94.52,1.024,1.024,0,0,1-.47-.124,1.113,1.113,0,0,1-.4-.371v1.732h-.916V71.894a1.468,1.468,0,0,1-.421.371,1.092,1.092,0,0,1-1.435-.4,2.219,2.219,0,0,1-.371-1.312,1.962,1.962,0,0,1,.421-1.287,1.187,1.187,0,0,1,.916-.52,1.126,1.126,0,0,1,.495.124,1.113,1.113,0,0,1,.4.371V67.489Zm-.619,1.955a.529.529,0,0,0-.445.3,1.89,1.89,0,0,0-.025,1.633.483.483,0,0,0,.891,0,1.563,1.563,0,0,0,.2-.841,1.448,1.448,0,0,0-.2-.841.551.551,0,0,0-.421-.272Zm2.153,0a.519.519,0,0,0-.47.322,1.661,1.661,0,0,0-.173.817,1.5,1.5,0,0,0,.2.792.529.529,0,0,0,.445.3.513.513,0,0,0,.445-.322,1.536,1.536,0,0,0,.2-.767,1.5,1.5,0,0,0-.173-.792.519.519,0,0,0-.47-.322Zm2.326-.643h.891v2.2l1.411-2.2h.916v3.49h-.891V70.038l-1.435,2.227h-.891Zm4.133,0h.866v.52a1.212,1.212,0,0,1,.445-.421,1.384,1.384,0,0,1,.643-.173,1.361,1.361,0,0,1,1.039.47,2.009,2.009,0,0,1,.421,1.336,2.034,2.034,0,0,1-.421,1.361,1.35,1.35,0,0,1-1.039.495,1.15,1.15,0,0,1-.52-.124,1.644,1.644,0,0,1-.495-.4V73.6h-.916V68.776Zm.916,1.683a1.347,1.347,0,0,0,.223.866.727.727,0,0,0,1.114.025,1.269,1.269,0,0,0,.223-.841,1.238,1.238,0,0,0-.223-.817.692.692,0,0,0-.544-.272.669.669,0,0,0-.569.272A1.136,1.136,0,0,0,470.442,70.459Zm3.168-1.683h1.138l.866,2.425.866-2.425h1.138v3.49h-.792v-2.3l-.841,2.3h-.792l-.817-2.3v2.3h-.792v-3.49Zm5.544,1.064-.841-.148a1.176,1.176,0,0,1,.495-.742,1.661,1.661,0,0,1,1.015-.247,2.119,2.119,0,0,1,.916.148.9.9,0,0,1,.421.371,1.989,1.989,0,0,1,.124.817v1.089a3.854,3.854,0,0,0,.049.668,1.374,1.374,0,0,0,.173.47h-.916c-.025-.074-.049-.148-.1-.272a.247.247,0,0,1-.025-.1,1.635,1.635,0,0,1-.495.346,1.468,1.468,0,0,1-.569.124,1.125,1.125,0,0,1-.841-.3,1.029,1.029,0,0,1-.322-.742.915.915,0,0,1,.148-.52.9.9,0,0,1,.4-.346,4.614,4.614,0,0,1,.742-.223,4.516,4.516,0,0,0,.891-.223v-.1a.512.512,0,0,0-.124-.371.8.8,0,0,0-.495-.124.628.628,0,0,0-.4.1.606.606,0,0,0-.223.346Zm1.237.742c-.124.049-.3.074-.569.148a1.7,1.7,0,0,0-.495.148.361.361,0,0,0-.173.322.489.489,0,0,0,.148.346.5.5,0,0,0,.371.148.694.694,0,0,0,.47-.173.532.532,0,0,0,.223-.3,1.9,1.9,0,0,0,.025-.445v-.2Z" fill="#008b9a"/>
      </g>
    </g>
  </g>
</svg>
