<svg xmlns="http://www.w3.org/2000/svg" xmlns:xlink="http://www.w3.org/1999/xlink" width="779" height="495" viewBox="0 0 779 495">
  <defs>
    <clipPath id="clip-path">
      <rect id="Прямоугольник_95" data-name="Прямоугольник 95" width="432" height="279" transform="translate(984.666 816.313)" fill="#fff" stroke="#707070" stroke-width="1"/>
    </clipPath>
    <linearGradient id="linear-gradient" x1="0.5" y1="1" x2="0.5" gradientUnits="objectBoundingBox">
      <stop offset="0" stop-color="gray" stop-opacity="0.251"/>
      <stop offset="0.54" stop-color="gray" stop-opacity="0.122"/>
      <stop offset="1" stop-color="gray" stop-opacity="0.102"/>
    </linearGradient>
  </defs>
  <g id="Сгруппировать_216" data-name="Сгруппировать 216" transform="translate(-676 -729)">
    <rect id="Прямоугольник_126" data-name="Прямоугольник 126" width="778" height="495" transform="translate(677 729)" fill="#f1f5f7"/>
    <path id="Контур_114" data-name="Контур 114" d="M7932,21s281,23.481,281,146.97-281,346.987-281,346.987" transform="translate(-7256 708)" fill="#fff"/>
    <g id="Группа_масок_27" data-name="Группа масок 27" transform="translate(-53.666 20.687)" clip-path="url(#clip-path)">
      <g id="undraw_transfer_files_6tns-2" transform="translate(1041.605 816)">
        <g id="Сгруппировать_197" data-name="Сгруппировать 197" transform="translate(200.189 115.907)" opacity="0.5">
          <rect id="Прямоугольник_96" data-name="Прямоугольник 96" width="118.267" height="163.406" fill="url(#linear-gradient)"/>
        </g>
        <rect id="Прямоугольник_97" data-name="Прямоугольник 97" width="115.258" height="159.795" transform="translate(201.695 117.111)" fill="#fff"/>
        <g id="Сгруппировать_198" data-name="Сгруппировать 198" transform="translate(189.268 110.038)" opacity="0.5">
          <rect id="Прямоугольник_98" data-name="Прямоугольник 98" width="118.267" height="163.406" fill="url(#linear-gradient)"/>
        </g>
        <rect id="Прямоугольник_99" data-name="Прямоугольник 99" width="115.258" height="159.795" transform="translate(190.774 111.242)" fill="#f5f5f5"/>
        <g id="Сгруппировать_199" data-name="Сгруппировать 199" transform="translate(178.996 104.661)" opacity="0.5">
          <rect id="Прямоугольник_100" data-name="Прямоугольник 100" width="118.267" height="163.406" fill="url(#linear-gradient)"/>
        </g>
        <rect id="Прямоугольник_101" data-name="Прямоугольник 101" width="115.258" height="159.795" transform="translate(180.503 105.865)" fill="#fff"/>
        <rect id="Прямоугольник_102" data-name="Прямоугольник 102" width="31.953" height="2.933" transform="translate(191.103 132.536)" fill="#1aa8b3"/>
        <rect id="Прямоугольник_103" data-name="Прямоугольник 103" width="93.901" height="2.933" transform="translate(191.103 142.808)" fill="#e0e0e0"/>
        <rect id="Прямоугольник_104" data-name="Прямоугольник 104" width="73.033" height="2.933" transform="translate(191.103 153.076)" fill="#e0e0e0"/>
        <rect id="Прямоугольник_105" data-name="Прямоугольник 105" width="86.237" height="2.933" transform="translate(191.103 163.348)" fill="#e0e0e0"/>
        <rect id="Прямоугольник_106" data-name="Прямоугольник 106" width="76.294" height="2.933" transform="translate(201.05 173.62)" fill="#e0e0e0"/>
        <rect id="Прямоугольник_107" data-name="Прямоугольник 107" width="60.157" height="2.933" transform="translate(208.385 183.888)" fill="#3ad29f" opacity="0.3"/>
        <rect id="Прямоугольник_108" data-name="Прямоугольник 108" width="74.827" height="2.933" transform="translate(201.05 194.159)" fill="#e0e0e0"/>
        <rect id="Прямоугольник_109" data-name="Прямоугольник 109" width="93.901" height="2.933" transform="translate(191.103 204.427)" fill="#e0e0e0"/>
        <rect id="Прямоугольник_110" data-name="Прямоугольник 110" width="93.901" height="2.933" transform="translate(191.103 214.699)" fill="#e0e0e0"/>
        <rect id="Прямоугольник_111" data-name="Прямоугольник 111" width="93.901" height="2.933" transform="translate(191.103 224.971)" fill="#e0e0e0"/>
        <rect id="Прямоугольник_112" data-name="Прямоугольник 112" width="93.901" height="2.933" transform="translate(191.103 235.239)" fill="#e0e0e0"/>
        <g id="Сгруппировать_200" data-name="Сгруппировать 200" opacity="0.5">
          <rect id="Прямоугольник_113" data-name="Прямоугольник 113" width="118.267" height="163.406" fill="url(#linear-gradient)"/>
        </g>
        <rect id="Прямоугольник_114" data-name="Прямоугольник 114" width="115.258" height="159.795" transform="translate(1.506 1.204)" fill="#fff"/>
        <rect id="Прямоугольник_115" data-name="Прямоугольник 115" width="76.947" height="2.933" transform="translate(21.397 58.687)" fill="#e0e0e0"/>
        <rect id="Прямоугольник_116" data-name="Прямоугольник 116" width="76.294" height="2.933" transform="translate(22.05 68.958)" fill="#e0e0e0"/>
        <rect id="Прямоугольник_117" data-name="Прямоугольник 117" width="60.157" height="2.933" transform="translate(29.385 79.23)" fill="#e0e0e0"/>
        <rect id="Прямоугольник_118" data-name="Прямоугольник 118" width="74.827" height="2.933" transform="translate(22.05 89.498)" fill="#e0e0e0"/>
        <rect id="Прямоугольник_119" data-name="Прямоугольник 119" width="76.294" height="2.933" transform="translate(21.397 99.77)" fill="#e0e0e0"/>
        <rect id="Прямоугольник_120" data-name="Прямоугольник 120" width="76.294" height="2.933" transform="translate(21.397 110.038)" fill="#e0e0e0"/>
        <rect id="Прямоугольник_121" data-name="Прямоугольник 121" width="76.294" height="2.933" transform="translate(21.397 120.31)" fill="#e0e0e0"/>
        <rect id="Прямоугольник_122" data-name="Прямоугольник 122" width="76.294" height="2.933" transform="translate(21.397 130.581)" fill="#e0e0e0"/>
        <rect id="Прямоугольник_123" data-name="Прямоугольник 123" width="20.54" height="17.607" transform="translate(22.455 23.965)" fill="#1aa8b3"/>
        <rect id="Прямоугольник_124" data-name="Прямоугольник 124" width="38.147" height="2.933" transform="translate(57.665 26.898)" fill="#e0e0e0"/>
        <rect id="Прямоугольник_125" data-name="Прямоугольник 125" width="38.147" height="2.933" transform="translate(57.665 37.169)" fill="#3ad29f" opacity="0.3"/>
        <g id="Сгруппировать_201" data-name="Сгруппировать 201" transform="translate(133.558 37.169)" opacity="0.3">
          <line id="Линия_1" data-name="Линия 1" x2="2.189" transform="translate(0 0)" fill="none" stroke="#3ad29f" stroke-miterlimit="10" stroke-width="0.862"/>
          <line id="Линия_2" data-name="Линия 2" x2="83.126" transform="translate(6.453 0)" fill="none" stroke="#3ad29f" stroke-miterlimit="10" stroke-width="0.862" stroke-dasharray="11.69 11.69"/>
          <path id="Контур_107" data-name="Контур 107" d="M177.433,29.276h2.189v2.189" transform="translate(-85.721 -29.276)" fill="none" stroke="#3ad29f" stroke-miterlimit="10" stroke-width="0.862"/>
          <line id="Линия_3" data-name="Линия 3" y2="44.373" transform="translate(93.901 6.858)" fill="none" stroke="#3ad29f" stroke-miterlimit="10" stroke-width="0.862" stroke-dasharray="12.8 12.8"/>
          <line id="Линия_4" data-name="Линия 4" y2="2.189" transform="translate(93.901 53.565)" fill="none" stroke="#3ad29f" stroke-miterlimit="10" stroke-width="0.862"/>
        </g>
        <g id="Сгруппировать_202" data-name="Сгруппировать 202" transform="translate(73.401 176.552)" opacity="0.3">
          <line id="Линия_5" data-name="Линия 5" x1="2.189" transform="translate(91.712 55.754)" fill="none" stroke="#3ad29f" stroke-miterlimit="10" stroke-width="0.862"/>
          <line id="Линия_6" data-name="Линия 6" x1="83.126" transform="translate(4.322 55.754)" fill="none" stroke="#3ad29f" stroke-miterlimit="10" stroke-width="0.862" stroke-dasharray="11.69 11.69"/>
          <path id="Контур_108" data-name="Контур 108" d="M60,183.44H57.814v-2.189" transform="translate(-57.814 -127.686)" fill="none" stroke="#3ad29f" stroke-miterlimit="10" stroke-width="0.862"/>
          <line id="Линия_7" data-name="Линия 7" y1="44.37" transform="translate(0 4.523)" fill="none" stroke="#3ad29f" stroke-miterlimit="10" stroke-width="0.862" stroke-dasharray="12.8 12.8"/>
          <line id="Линия_8" data-name="Линия 8" y1="2.189" transform="translate(0)" fill="none" stroke="#3ad29f" stroke-miterlimit="10" stroke-width="0.862"/>
        </g>
        <path id="Контур_109" data-name="Контур 109" d="M195.573,67.547a1.339,1.339,0,0,1-.73-1.62.645.645,0,0,0,.029-.15h0a.671.671,0,0,0-1.207-.445h0a.644.644,0,0,0-.073.131,1.339,1.339,0,0,1-1.62.73.645.645,0,0,0-.15-.029h0a.671.671,0,0,0-.445,1.207h0a.646.646,0,0,0,.131.073,1.339,1.339,0,0,1,.73,1.62.645.645,0,0,0-.029.15h0a.671.671,0,0,0,1.207.445h0a.647.647,0,0,0,.073-.131,1.339,1.339,0,0,1,1.62-.73.647.647,0,0,0,.15.029h0a.671.671,0,0,0,.445-1.207h0a.646.646,0,0,0-.131-.073Z" transform="translate(-8.104 -6.945)" fill="#1aa8b3" opacity="0.3"/>
        <path id="Контур_110" data-name="Контур 110" d="M159.628,94.318a2.823,2.823,0,0,1-1.572-3.429,1.357,1.357,0,0,0,.062-.314h0a1.415,1.415,0,0,0-2.553-.937h0a1.358,1.358,0,0,0-.157.277,2.823,2.823,0,0,1-3.414,1.572,1.357,1.357,0,0,0-.314-.062h0a1.415,1.415,0,0,0-.937,2.553h0a1.357,1.357,0,0,0,.277.157,2.823,2.823,0,0,1,1.572,3.414,1.358,1.358,0,0,0-.062.314h0a1.415,1.415,0,0,0,2.553.937h0a1.356,1.356,0,0,0,.157-.277,2.823,2.823,0,0,1,3.414-1.572,1.357,1.357,0,0,0,.314.062h0a1.415,1.415,0,0,0,.937-2.553h0a1.356,1.356,0,0,0-.277-.142Z" transform="translate(-19.143 -0.476)" fill="#1aa8b3" opacity="0.3"/>
        <path id="Контур_111" data-name="Контур 111" d="M182.193,169.14a2.823,2.823,0,0,1-3.246-1.893,1.353,1.353,0,0,0-.128-.292h0a1.415,1.415,0,0,0-2.623.689h0a1.357,1.357,0,0,0,.029.317,2.823,2.823,0,0,1-1.893,3.246,1.357,1.357,0,0,0-.292.128h0a1.415,1.415,0,0,0,.689,2.623h0a1.358,1.358,0,0,0,.317-.029,2.823,2.823,0,0,1,3.246,1.893,1.356,1.356,0,0,0,.128.292h0a1.415,1.415,0,0,0,2.623-.689h0a1.357,1.357,0,0,0-.029-.317,2.823,2.823,0,0,1,1.893-3.246,1.357,1.357,0,0,0,.292-.128h0a1.415,1.415,0,0,0-.689-2.623h0a1.357,1.357,0,0,0-.317.029Z" transform="translate(-12.888 20.343)" fill="#1aa8b3" opacity="0.3"/>
        <path id="Контур_112" data-name="Контур 112" d="M135.814,183.9a1.339,1.339,0,0,1-.729-1.62.644.644,0,0,0,.029-.15h0a.671.671,0,0,0-1.207-.445h0a.646.646,0,0,0-.073.131,1.339,1.339,0,0,1-1.62.73.645.645,0,0,0-.15-.029h0a.671.671,0,0,0-.445,1.207h0a.65.65,0,0,0,.131.073,1.339,1.339,0,0,1,.73,1.62.646.646,0,0,0-.029.15h0a.671.671,0,0,0,1.207.445h0a.645.645,0,0,0,.073-.131,1.339,1.339,0,0,1,1.62-.73.644.644,0,0,0,.15.029h0a.671.671,0,0,0,.445-1.207h0a.649.649,0,0,0-.131-.073Z" transform="translate(-24.215 24.426)" fill="#1aa8b3" opacity="0.3"/>
      </g>
    </g>
  </g>
</svg>
