<?xml version="1.0" encoding="utf-8"?><svg data-name="Layer 2" xmlns="http://www.w3.org/2000/svg" width="772.721" height="669.07" viewBox="0 0 772.721 669.07"><path d="M565.721 425.911c-114.14 0-207-92.86-207-207s92.86-207 207-207 207 92.86 207 207-92.86 207-207 207zm0-412c-113.037 0-205 91.962-205 205s91.963 205 205 205 205-91.963 205-205-91.963-205-205-205z" fill="#e6e6e6"/><path d="M565.721 367.911c-82.16 0-149-66.841-149-149s66.84-149 149-149 149 66.841 149 149-66.84 149-149 149zm0-296c-81.056 0-147 65.944-147 147s65.944 147 147 147 147-65.944 147-147-65.944-147-147-147z" fill="#e6e6e6"/><path d="M565.721 309.252a90.342 90.342 0 1190.342-90.341 90.444 90.444 0 01-90.342 90.341zm0-178.683a88.342 88.342 0 1088.342 88.342 88.442 88.442 0 00-88.342-88.342z" fill="#e6e6e6"/><circle cx="565.721" cy="218.911" r="45.873" fill="#1AA8B3"/><circle cx="598.539" cy="14.545" r="14.545" fill="#1AA8B3"/><circle cx="416.164" cy="360.274" r="14.545" fill="#1AA8B3"/><circle cx="418.164" cy="235.274" r="14.545" fill="#e6e6e6"/><circle cx="690.164" cy="137.274" r="14.545" fill="#e6e6e6"/><circle cx="747.164" cy="318.274" r="14.545" fill="#e6e6e6"/><circle cx="704.831" cy="253.982" r="14.545" fill="#1AA8B3"/><circle cx="385.955" cy="115.243" r="14.545" fill="#1AA8B3"/><circle cx="619.797" cy="418.455" r="14.545" fill="#1AA8B3"/></svg>