<?xml version="1.0" encoding="utf-8"?><svg xmlns="http://www.w3.org/2000/svg" width="779" height="495" viewBox="0 0 779 495"><defs><linearGradient id="fb" x1=".5" y1="1" x2=".5" gradientUnits="objectBoundingBox"><stop offset="0" stop-color="gray" stop-opacity=".251"/><stop offset=".54" stop-color="gray" stop-opacity=".122"/><stop offset="1" stop-color="gray" stop-opacity=".102"/></linearGradient><clipPath id="fa"><path data-name="Прямоугольник 95" transform="translate(984.666 816.313)" fill="#fff" stroke="#707070" d="M0 0h432v279H0z"/></clipPath></defs><g data-name="Сгруппировать 216"><path data-name="Прямоугольник 126" fill="#f1f5f7" d="M1 0h778v495H1z"/><path data-name="Контур 114" d="M0 0s281 23.481 281 146.97S0 493.957 0 493.957" fill="#fff"/><g data-name="Группа масок 27" transform="translate(-729.666 -708.313)" clip-path="url(#fa)"><g data-name="Сгруппировать 197"><path data-name="Прямоугольник 96" fill="url(#fb)" d="M0 0h118.267v163.406H0z" transform="translate(1241.794 931.907)" opacity=".5"/></g><path data-name="Прямоугольник 97" fill="#fff" d="M1243.3 933.111h115.258v159.795H1243.3z"/><g data-name="Сгруппировать 198"><path data-name="Прямоугольник 98" fill="url(#fb)" d="M0 0h118.267v163.406H0z" transform="translate(1230.873 926.038)" opacity=".5"/></g><path data-name="Прямоугольник 99" fill="#f5f5f5" d="M1232.379 927.242h115.258v159.795h-115.258z"/><g data-name="Сгруппировать 199"><path data-name="Прямоугольник 100" fill="url(#fb)" d="M0 0h118.267v163.406H0z" transform="translate(1220.601 920.661)" opacity=".5"/></g><path data-name="Прямоугольник 101" fill="#fff" d="M1222.108 921.865h115.258v159.795h-115.258z"/><path data-name="Прямоугольник 102" fill="#1aa8b3" d="M1232.708 948.536h31.953v2.933h-31.953z"/><path data-name="Прямоугольник 103" fill="#e0e0e0" d="M1232.708 958.808h93.901v2.933h-93.901z"/><path data-name="Прямоугольник 104" fill="#e0e0e0" d="M1232.708 969.076h73.033v2.933h-73.033z"/><path data-name="Прямоугольник 105" fill="#e0e0e0" d="M1232.708 979.348h86.237v2.933h-86.237z"/><path data-name="Прямоугольник 106" fill="#e0e0e0" d="M1242.655 989.62h76.294v2.933h-76.294z"/><path data-name="Прямоугольник 107" fill="#3ad29f" opacity=".3" d="M1249.99 999.888h60.157v2.933h-60.157z"/><path data-name="Прямоугольник 108" fill="#e0e0e0" d="M1242.655 1010.159h74.827v2.933h-74.827z"/><path data-name="Прямоугольник 109" fill="#e0e0e0" d="M1232.708 1020.427h93.901v2.933h-93.901z"/><path data-name="Прямоугольник 110" fill="#e0e0e0" d="M1232.708 1030.699h93.901v2.933h-93.901z"/><path data-name="Прямоугольник 111" fill="#e0e0e0" d="M1232.708 1040.971h93.901v2.933h-93.901z"/><path data-name="Прямоугольник 112" fill="#e0e0e0" d="M1232.708 1051.239h93.901v2.933h-93.901z"/><g data-name="Сгруппировать 200"><path data-name="Прямоугольник 113" fill="url(#fb)" d="M0 0h118.267v163.406H0z" transform="translate(1041.605 816)" opacity=".5"/></g><path data-name="Прямоугольник 114" fill="#fff" d="M1043.111 817.204h115.258v159.795h-115.258z"/><path data-name="Прямоугольник 115" fill="#e0e0e0" d="M1063.002 874.687h76.947v2.933h-76.947z"/><path data-name="Прямоугольник 116" fill="#e0e0e0" d="M1063.655 884.958h76.294v2.933h-76.294z"/><path data-name="Прямоугольник 117" fill="#e0e0e0" d="M1070.99 895.23h60.157v2.933h-60.157z"/><path data-name="Прямоугольник 118" fill="#e0e0e0" d="M1063.655 905.498h74.827v2.933h-74.827z"/><path data-name="Прямоугольник 119" fill="#e0e0e0" d="M1063.002 915.77h76.294v2.933h-76.294z"/><path data-name="Прямоугольник 120" fill="#e0e0e0" d="M1063.002 926.038h76.294v2.933h-76.294z"/><path data-name="Прямоугольник 121" fill="#e0e0e0" d="M1063.002 936.31h76.294v2.933h-76.294z"/><path data-name="Прямоугольник 122" fill="#e0e0e0" d="M1063.002 946.581h76.294v2.933h-76.294z"/><path data-name="Прямоугольник 123" fill="#1aa8b3" d="M1064.06 839.965h20.54v17.607h-20.54z"/><path data-name="Прямоугольник 124" fill="#e0e0e0" d="M1099.27 842.898h38.147v2.933h-38.147z"/><path data-name="Прямоугольник 125" fill="#3ad29f" opacity=".3" d="M1099.27 853.169h38.147v2.933h-38.147z"/><g data-name="Сгруппировать 201" opacity=".3" fill="none" stroke="#3ad29f" stroke-miterlimit="10" stroke-width=".862"><path data-name="Линия 1" d="M1175.163 853.169h2.189"/><path data-name="Линия 2" stroke-dasharray="11.69 11.69" d="M1181.616 853.169h83.126"/><path data-name="Контур 107" d="M1266.875 853.169h2.189v2.189"/><path data-name="Линия 3" stroke-dasharray="12.8 12.8" d="M1269.064 860.027V904.4"/><path data-name="Линия 4" d="M1269.064 906.734v2.189"/></g><g data-name="Сгруппировать 202" opacity=".3" fill="none" stroke="#3ad29f" stroke-miterlimit="10" stroke-width=".862"><path data-name="Линия 5" d="M1208.907 1048.306h-2.189"/><path data-name="Линия 6" stroke-dasharray="11.69 11.69" d="M1202.454 1048.306h-83.126"/><path data-name="Контур 108" d="M1117.192 1048.306h-2.186v-2.189"/><path data-name="Линия 7" stroke-dasharray="12.8 12.8" d="M1115.006 1041.445v-44.37"/><path data-name="Линия 8" d="M1115.006 994.741v-2.189"/></g><path data-name="Контур 109" d="M1229.074 876.602a1.339 1.339 0 01-.73-1.62.645.645 0 00.029-.15.671.671 0 00-1.207-.445.644.644 0 00-.073.131 1.339 1.339 0 01-1.62.73.645.645 0 00-.15-.029.671.671 0 00-.445 1.207.646.646 0 00.131.073 1.339 1.339 0 01.73 1.62.645.645 0 00-.029.15.671.671 0 001.207.445.647.647 0 00.073-.131 1.339 1.339 0 011.62-.73.647.647 0 00.15.029.671.671 0 00.445-1.207.646.646 0 00-.131-.073z" fill="#1aa8b3" opacity=".3"/><path data-name="Контур 110" d="M1182.09 909.842a2.823 2.823 0 01-1.572-3.429 1.357 1.357 0 00.062-.314 1.415 1.415 0 00-2.553-.937 1.358 1.358 0 00-.157.277 2.823 2.823 0 01-3.414 1.572 1.357 1.357 0 00-.314-.062 1.415 1.415 0 00-.937 2.553 1.357 1.357 0 00.277.157 2.823 2.823 0 011.572 3.414 1.358 1.358 0 00-.062.314 1.415 1.415 0 002.553.937 1.356 1.356 0 00.157-.277 2.823 2.823 0 013.414-1.572 1.357 1.357 0 00.314.062 1.415 1.415 0 00.937-2.553 1.356 1.356 0 00-.277-.142z" fill="#1aa8b3" opacity=".3"/><path data-name="Контур 111" d="M1210.91 1005.483a2.823 2.823 0 01-3.246-1.893 1.353 1.353 0 00-.128-.292 1.415 1.415 0 00-2.623.689 1.357 1.357 0 00.029.317 2.823 2.823 0 01-1.893 3.246 1.357 1.357 0 00-.292.128 1.415 1.415 0 00.689 2.623 1.358 1.358 0 00.317-.029 2.823 2.823 0 013.246 1.893 1.356 1.356 0 00.128.292 1.415 1.415 0 002.623-.689 1.357 1.357 0 00-.029-.317 2.823 2.823 0 011.893-3.246 1.357 1.357 0 00.292-.128 1.415 1.415 0 00-.689-2.623 1.357 1.357 0 00-.317.029z" fill="#1aa8b3" opacity=".3"/><path data-name="Контур 112" d="M1153.204 1024.326a1.339 1.339 0 01-.729-1.62.644.644 0 00.029-.15.671.671 0 00-1.207-.445.646.646 0 00-.073.131 1.339 1.339 0 01-1.62.73.645.645 0 00-.15-.029.671.671 0 00-.445 1.207.65.65 0 00.131.073 1.339 1.339 0 01.73 1.62.646.646 0 00-.029.15.671.671 0 001.207.445.645.645 0 00.073-.131 1.339 1.339 0 011.62-.73.644.644 0 00.15.029.671.671 0 00.445-1.207.649.649 0 00-.131-.073z" fill="#1aa8b3" opacity=".3"/></g></g></svg>