<?xml version="1.0" encoding="utf-8"?><svg viewBox="0 0 779 669.07" xmlns="http://www.w3.org/2000/svg" xmlns:xlink="http://www.w3.org/1999/xlink"><style>:root>svg{display:none}:root>svg:target{display:block}</style><svg data-name="Layer 2" viewBox="0 0 772.721 669.07" id="about_background" xmlns="http://www.w3.org/2000/svg"><path d="M565.721 425.911c-114.14 0-207-92.86-207-207s92.86-207 207-207 207 92.86 207 207-92.86 207-207 207zm0-412c-113.037 0-205 91.962-205 205s91.963 205 205 205 205-91.963 205-205-91.963-205-205-205z" fill="#e6e6e6"/><path d="M565.721 367.911c-82.16 0-149-66.841-149-149s66.84-149 149-149 149 66.841 149 149-66.84 149-149 149zm0-296c-81.056 0-147 65.944-147 147s65.944 147 147 147 147-65.944 147-147-65.944-147-147-147z" fill="#e6e6e6"/><path d="M565.721 309.252a90.342 90.342 0 1190.342-90.341 90.444 90.444 0 01-90.342 90.341zm0-178.683a88.342 88.342 0 1088.342 88.342 88.442 88.442 0 00-88.342-88.342z" fill="#e6e6e6"/><circle cx="565.721" cy="218.911" r="45.873" fill="#1AA8B3"/><circle cx="598.539" cy="14.545" r="14.545" fill="#1AA8B3"/><circle cx="416.164" cy="360.274" r="14.545" fill="#1AA8B3"/><circle cx="418.164" cy="235.274" r="14.545" fill="#e6e6e6"/><circle cx="690.164" cy="137.274" r="14.545" fill="#e6e6e6"/><circle cx="747.164" cy="318.274" r="14.545" fill="#e6e6e6"/><circle cx="704.831" cy="253.982" r="14.545" fill="#1AA8B3"/><circle cx="385.955" cy="115.243" r="14.545" fill="#1AA8B3"/><circle cx="619.797" cy="418.455" r="14.545" fill="#1AA8B3"/></svg><svg viewBox="0 0 512 512" id="about_info__list_1" xmlns="http://www.w3.org/2000/svg"><path d="M451.72 237.26c-17.422-8.71-50.087-8.811-51.469-8.811a7.5 7.5 0 000 15c8.429.001 32.902 1.299 44.761 7.228a7.502 7.502 0 006.708-13.417z" data-original="#000000" class="bactive-path" data-old_color="#000000" fill="#1AA8B3"/><path d="M489.112 344.041l-30.975-8.85a3.145 3.145 0 01-2.271-3.011v-10.339a56.368 56.368 0 007.171-5.881c10.89-10.568 16.887-24.743 16.887-39.915v-14.267l2.995-5.989a47.846 47.846 0 005.024-21.286v-38.65a7.5 7.5 0 00-7.5-7.5H408.27c-26.244 0-47.596 21.352-47.596 47.596v.447a39.78 39.78 0 004.178 17.699l3.841 7.682v12.25c0 19.414 9.567 36.833 24.058 47.315l.002 10.836c0 1.671 0 2.363-6.193 4.133l-15.114 4.318-43.721-15.898a7.491 7.491 0 00-2.044-5.742l-13.971-14.678v-24.64a90.427 90.427 0 004.344-3.789c17.625-16.52 27.733-39.844 27.733-63.991v-19.678c5.322-11.581 8.019-23.836 8.019-36.457v-80.19a7.5 7.5 0 00-7.5-7.5H232.037c-39.51 0-71.653 32.144-71.653 71.653v16.039c0 12.621 2.697 24.876 8.019 36.457v16.931c0 28.036 12.466 53.294 32.077 69.946v25.22l-13.971 14.678a7.491 7.491 0 00-2.044 5.742l-46.145 16.779a39.33 39.33 0 00-9.272 4.858l-7.246-3.623c21.57-9.389 28.403-22.594 28.731-23.25a7.498 7.498 0 000-6.708c-5.407-10.814-6.062-30.635-6.588-46.561-.175-5.302-.341-10.311-.658-14.771-2.557-35.974-29.905-63.103-63.615-63.103s-61.059 27.128-63.615 63.103c-.317 4.461-.483 9.47-.658 14.773-.526 15.925-1.182 35.744-6.588 46.558a7.498 7.498 0 000 6.708c.328.656 7.147 13.834 28.76 23.234l-20.127 10.063C6.684 358.176 0 368.991 0 381.02v55.409a7.5 7.5 0 0015 0V381.02c0-6.312 3.507-11.987 9.152-14.81l25.063-12.531 8.718 8.285a31.466 31.466 0 0021.739 8.688 31.475 31.475 0 0021.739-8.688l8.717-8.284 8.172 4.086c-3.848 6.157-6.032 13.377-6.032 20.94v57.725a7.5 7.5 0 0015 0v-57.725c0-10.296 6.501-19.578 16.178-23.097l48.652-17.691 20.253 30.381a15.462 15.462 0 0011.383 6.835 15.458 15.458 0 0012.504-4.47l12.356-12.356v78.124a7.5 7.5 0 0015 0v-78.124l12.356 12.356a15.452 15.452 0 0010.957 4.547c.513 0 1.029-.025 1.546-.076a15.462 15.462 0 0011.384-6.835l20.254-30.38 48.651 17.691c9.676 3.519 16.178 12.801 16.178 23.097v57.725a7.5 7.5 0 0015 0v-57.725c0-10.428-4.143-20.208-11.093-27.441l1.853-.529c1.869-.534 4.419-1.265 6.979-2.52l19.149 19.149v69.066a7.5 7.5 0 0015 0v-69.066l19.016-19.016c1.011.514 2.073.948 3.191 1.267l30.976 8.85c7.07 2.02 12.009 8.567 12.009 15.921v62.044a7.5 7.5 0 0015 0v-62.044c0-14.018-9.412-26.497-22.888-30.348zM48.115 330.794c-14.029-5.048-21.066-11.778-24.07-15.453 2.048-5.354 3.376-11.486 4.275-17.959 4.136 9.917 11.063 18.383 19.795 24.423v8.989zm42.965 20.298c-6.397 6.078-16.418 6.077-22.813-.001l-6.975-6.628a15.518 15.518 0 001.824-7.324v-7.994a55.427 55.427 0 0016.558 2.517c5.757 0 11.316-.886 16.557-2.512l-.001 7.988c0 2.62.646 5.121 1.824 7.327l-6.974 6.627zm-11.404-34.43c-22.396 0-40.615-18.22-40.615-40.615a7.5 7.5 0 00-7.5-7.5c-.42 0-.83.043-1.231.11l.065-1.93c.167-5.157.328-10.028.625-14.206.958-13.476 6.343-25.894 15.163-34.968 8.899-9.156 20.793-14.198 33.491-14.198s24.591 5.042 33.491 14.198c8.82 9.074 14.205 21.492 15.163 34.968.296 4.177.458 9.047.628 14.203l.045 1.338c-8.16-12.572-20.762-21.837-37.045-27.069-15.043-4.833-27.981-4.534-28.527-4.52a7.5 7.5 0 00-5.191 2.291l-13.532 14.034a7.5 7.5 0 1010.798 10.412l11.26-11.677c9.697.474 40.894 4.102 53.027 30.819-3.053 19.688-19.975 34.31-40.115 34.31zm31.553 14.157l.001-8.945a55.477 55.477 0 0019.801-24.449c.899 6.458 2.226 12.576 4.27 17.918-2.987 3.64-10.057 10.43-24.072 15.476zm72.174-121.674v-18.608a7.501 7.501 0 00-.746-3.261c-4.826-9.994-7.273-20.598-7.273-31.518V139.72c0-31.239 25.415-56.653 56.653-56.653h104.769v72.692c0 10.92-2.447 21.524-7.273 31.518a7.501 7.501 0 00-.746 3.261v21.355c0 20.311-8.165 39.15-22.991 53.047a74.636 74.636 0 01-5.758 4.875c-.044.03-.086.063-.129.094-13.889 10.545-30.901 15.67-48.667 14.519-38.041-2.463-67.839-35.531-67.839-75.283zm42.229 150.911c-.052.052-.173.175-.418.149a.477.477 0 01-.381-.229l-23.325-34.988 7.506-7.887 35.385 24.187-18.767 18.768zm30.463-28.943l-40.615-27.762v-14c10.509 5.681 22.276 9.234 34.791 10.044 1.977.128 3.942.191 5.901.191 14.341 0 28.143-3.428 40.538-9.935v13.7l-40.615 27.762zm31.262 28.865a.477.477 0 01-.381.229c-.245.031-.365-.098-.418-.149l-18.767-18.767 35.385-24.188 7.507 7.887-23.326 34.988zm136.951-6.328l-17.02-17.019c.297-1.349.465-2.826.464-4.455l-.001-3.165a52.589 52.589 0 0016.579 2.65 55.71 55.71 0 0016.536-2.501v3.02c0 1.496.188 2.962.542 4.371l-17.1 17.099zm28.283-48.454c-7.949 7.714-18.45 11.788-29.537 11.446-21.704-.651-39.361-19.768-39.361-42.613v-14.021a7.493 7.493 0 00-.792-3.354l-4.633-9.266a24.706 24.706 0 01-2.594-10.991v-.447c0-17.974 14.623-32.596 32.596-32.596h64.673v31.15a32.77 32.77 0 01-3.441 14.578l-3.786 7.572a7.496 7.496 0 00-.792 3.354v16.038c0 11.08-4.38 21.432-12.333 29.15z" data-original="#000000" class="bactive-path" data-old_color="#000000" fill="#1AA8B3"/><path d="M472.423 380.814a7.5 7.5 0 00-7.5 7.5v48.115a7.5 7.5 0 0015 0v-48.115a7.5 7.5 0 00-7.5-7.5zM39.577 390.728a7.5 7.5 0 00-7.5 7.5v38.201a7.5 7.5 0 0015 0v-38.201a7.5 7.5 0 00-7.5-7.5zM317.532 158.475c-28.366-28.366-87.715-22.943-111.917-19.295-7.623 1.149-13.155 7.6-13.155 15.339v17.278a7.5 7.5 0 0015 0v-17.279c0-.255.168-.473.392-.507 9.667-1.457 28.85-3.705 48.725-2.38 23.388 1.557 40.328 7.428 50.349 17.45a7.5 7.5 0 0010.606 0 7.5 7.5 0 000-10.606zM167.884 396.853a7.5 7.5 0 00-7.5 7.5v32.077a7.5 7.5 0 0015 0v-32.077a7.5 7.5 0 00-7.5-7.5zM344.306 396.853a7.5 7.5 0 00-7.5 7.5v32.077a7.5 7.5 0 0015 0v-32.077a7.5 7.5 0 00-7.5-7.5z" data-original="#000000" class="bactive-path" data-old_color="#000000" fill="#1AA8B3"/></svg><svg viewBox="0 0 512 512" id="about_info__list_2" xmlns="http://www.w3.org/2000/svg"><path d="M404.267 315.41c-10.048-20.949-45.995-50.027-80.725-78.123-19.371-15.659-37.675-30.464-49.344-42.133-2.923-2.944-7.296-3.883-11.157-2.496-7.189 2.603-11.627 4.608-15.125 6.165-5.333 2.389-7.125 3.2-14.315 3.925a10.663 10.663 0 00-7.808 4.672c-15.083 22.549-30.699 20.629-41.131 17.131-3.328-1.109-3.925-2.539-4.245-3.904-2.24-9.365 9.003-31.168 23.573-45.739 34.667-34.688 52.544-43.371 90.304-26.496 42.837 19.157 85.76 34.155 86.187 34.304a10.654 10.654 0 0013.589-6.571c1.92-5.568-1.003-11.648-6.571-13.589-.427-.149-42.496-14.848-84.48-33.643-48.917-21.867-75.755-7.467-114.091 30.891-14.592 14.592-34.411 44.117-29.291 65.771 2.197 9.216 8.683 16.043 18.325 19.221 24.171 7.979 46.229.341 62.656-21.461 6.784-1.045 10.475-2.581 16.021-5.077a209.95 209.95 0 017.467-3.2c12.203 11.456 28.672 24.789 46.016 38.805 31.36 25.365 66.923 54.123 74.923 70.763 3.947 8.213-.299 13.568-3.179 16.021-4.224 3.627-10.005 4.779-13.141 2.581-3.456-2.368-7.957-2.517-11.52-.384a10.66 10.66 0 00-5.141 10.304c.725 6.784-5.483 10.667-8.171 12.011-6.827 3.456-13.952 2.859-16.619.384-2.987-2.773-7.275-3.584-11.072-2.176-3.797 1.429-6.443 4.928-6.827 8.981-.64 6.997-5.824 13.717-12.587 16.341-3.264 1.237-8 1.984-12.245-1.899a10.791 10.791 0 00-9.749-2.475 10.65 10.65 0 00-7.488 6.72c-.405 1.067-1.323 3.627-11.307 3.627-7.104 0-19.883-4.8-26.133-8.939-7.488-4.928-54.443-39.957-94.997-73.92-5.696-4.8-15.552-15.083-24.256-24.171-7.723-8.064-14.784-15.381-18.411-18.453-4.544-3.84-11.264-3.264-15.04 1.259-3.797 4.501-3.243 11.243 1.259 15.04 3.307 2.795 9.707 9.557 16.768 16.917 9.515 9.941 19.349 20.224 25.963 25.771 39.723 33.259 87.467 69.163 96.981 75.413 7.851 5.163 24.768 12.416 37.867 12.416 10.517 0 18.603-2.411 24.213-7.125 7.509 2.923 16.043 2.944 24.256-.256 9.707-3.755 17.685-11.328 22.208-20.501 8.405 1.792 18.027.533 26.773-3.861 8.555-4.309 14.741-10.901 17.813-18.603 8.491.448 17.237-2.56 24.469-8.768 12.247-10.474 15.617-26.772 8.535-41.471z" data-original="#000000" class="cactive-path" data-old_color="#000000" fill="#1AA8B3"/><path d="M213.333 138.663h-96c-5.888 0-10.667 4.779-10.667 10.667s4.779 10.667 10.667 10.667h96c5.888 0 10.667-4.779 10.667-10.667s-4.779-10.667-10.667-10.667zM435.52 292.711c-3.307-4.885-9.92-6.229-14.805-2.901l-31.189 20.949c-4.885 3.285-6.187 9.92-2.901 14.805a10.717 10.717 0 008.875 4.715c2.027 0 4.096-.576 5.931-1.813l31.189-20.949c4.884-3.286 6.185-9.92 2.9-14.806zM369.301 343.613c-7.637-6.016-41.792-40.981-62.912-62.997-4.075-4.267-10.837-4.416-15.083-.32-4.267 4.075-4.395 10.837-.32 15.083 5.483 5.717 53.845 56.128 65.088 65.003a10.623 10.623 0 006.592 2.283c3.136 0 6.272-1.408 8.405-4.075 3.649-4.609 2.86-11.329-1.77-14.977zM326.677 365.01c-12.779-10.219-44.885-44.331-52.139-52.224-4.011-4.352-10.731-4.608-15.083-.64-4.331 3.989-4.629 10.752-.64 15.083.384.405 38.699 41.771 54.528 54.443a10.72 10.72 0 006.656 2.325c3.115 0 6.229-1.387 8.341-3.989 3.671-4.609 2.924-11.329-1.663-14.998zM284.224 386.493c-15.211-12.821-46.336-45.952-52.416-52.459-4.032-4.309-10.795-4.544-15.083-.512-4.309 4.032-4.523 10.773-.512 15.083 8.747 9.365 38.528 40.939 54.251 54.208a10.638 10.638 0 006.869 2.517c3.029 0 6.059-1.301 8.171-3.797 3.797-4.523 3.221-11.243-1.28-15.04z" data-original="#000000" class="cactive-path" data-old_color="#000000" fill="#1AA8B3"/><path d="M124.672 120.253C106.389 102.93 33.28 97.319 11.307 96.018c-3.029-.149-5.824.853-7.957 2.88A10.662 10.662 0 000 106.663v192c0 5.888 4.779 10.667 10.667 10.667h64c4.608 0 8.704-2.965 10.133-7.36 1.557-4.779 38.315-117.589 43.157-173.056.278-3.243-.917-6.443-3.285-8.661zM66.88 287.997H21.333V118.098c34.283 2.709 71.275 8.597 84.715 15.125-5.653 46.72-31.232 129.728-39.168 154.774zM501.333 117.33c-83.755 0-130.219 21.44-132.16 22.336-2.773 1.301-4.843 3.712-5.696 6.635s-.427 6.059 1.173 8.661c13.184 21.227 54.464 139.115 62.4 167.872a10.665 10.665 0 0010.283 7.829h64c5.888 0 10.667-4.779 10.667-10.667v-192a10.657 10.657 0 00-10.667-10.666zm-10.666 192h-45.355c-10.112-32.939-39.979-118.827-56.64-154.325 16.277-5.525 51.243-15.019 101.995-16.213V309.33z" data-original="#000000" class="cactive-path" data-old_color="#000000" fill="#1AA8B3"/></svg><svg viewBox="0 0 64 64" id="about_info__list_3" xmlns="http://www.w3.org/2000/svg"><path d="M57 8h-5V6a4 4 0 00-8 0v2h-8V6a4 4 0 00-8 0v2h-8V6a4 4 0 00-8 0v2H7a5 5 0 00-5 5v40a5 5 0 005 5h28a1 1 0 000-2H7a3.009 3.009 0 01-3-3V22h56v17a1 1 0 002 0V13a5 5 0 00-5-5zM46 6a2 2 0 014 0v6a2 2 0 01-4 0zM30 6a2 2 0 014 0v6a2 2 0 01-4 0zM14 6a2 2 0 014 0v6a2 2 0 01-4 0zm46 14H4v-7a3.009 3.009 0 013-3h5v2a4 4 0 008 0v-2h8v2a4 4 0 008 0v-2h8v2a4 4 0 008 0v-2h5a3.009 3.009 0 013 3z" data-original="#000000" class="dactive-path" data-old_color="#000000" fill="#1AA8B3"/><path d="M30 29a2 2 0 00-2-2h-4a2 2 0 00-2 2v3a2 2 0 002 2h4a2 2 0 002-2zm-6 3v-3h4v3zM18 29a2 2 0 00-2-2h-4a2 2 0 00-2 2v3a2 2 0 002 2h4a2 2 0 002-2zm-6 3v-3h4v3zM52 34a2 2 0 002-2v-3a2 2 0 00-2-2h-4a2 2 0 00-2 2v3a2 2 0 002 2zm-4-5h4v3h-4zM30 38a2 2 0 00-2-2h-4a2 2 0 00-2 2v3a2 2 0 002 2h4a2 2 0 002-2zm-6 3v-3h4v3zM18 38a2 2 0 00-2-2h-4a2 2 0 00-2 2v3a2 2 0 002 2h4a2 2 0 002-2zm-6 3v-3h4v3zM28 45h-4a2 2 0 00-2 2v3a2 2 0 002 2h4a2 2 0 002-2v-3a2 2 0 00-2-2zm-4 5v-3h4v3zM36 34h4a2 2 0 002-2v-3a2 2 0 00-2-2h-4a2 2 0 00-2 2v3a2 2 0 002 2zm0-5h4v3h-4zM34 41a2 2 0 002 2 1 1 0 000-2v-3h4a1 1 0 000-2h-4a2 2 0 00-2 2zM16 45h-4a2 2 0 00-2 2v3a2 2 0 002 2h4a2 2 0 002-2v-3a2 2 0 00-2-2zm-4 5v-3h4v3z" data-original="#000000" class="dactive-path" data-old_color="#000000" fill="#1AA8B3"/><path d="M49 36a13 13 0 1013 13 13.015 13.015 0 00-13-13zm0 24a11 11 0 1111-11 11.013 11.013 0 01-11 11z" data-original="#000000" class="dactive-path" data-old_color="#000000" fill="#1AA8B3"/><path d="M54.778 44.808L47 52.586l-3.535-3.536a1 1 0 00-1.414 1.414l4.242 4.243a1 1 0 001.414 0l8.485-8.485a1 1 0 00-1.414-1.414z" data-original="#000000" class="dactive-path" data-old_color="#000000" fill="#1AA8B3"/></svg><svg viewBox="0 0 438.891 438.891" id="about_info__list_4" xmlns="http://www.w3.org/2000/svg"><path d="M347.968 57.503h-39.706V39.74c0-5.747-6.269-8.359-12.016-8.359h-30.824C258.108 10.483 239.822.034 218.924.034c-20.668-.777-39.467 11.896-46.498 31.347h-30.302c-5.747 0-11.494 2.612-11.494 8.359v17.763H90.923c-23.53.251-42.78 18.813-43.886 42.318v299.363c0 22.988 20.898 39.706 43.886 39.706h257.045c22.988 0 43.886-16.718 43.886-39.706V99.822c-1.106-23.506-20.356-42.068-43.886-42.319zm-196.441-5.224h28.735a11.496 11.496 0 009.927-9.404c3.094-13.474 14.915-23.146 28.735-23.51 13.692.415 25.335 10.117 28.212 23.51a11.494 11.494 0 0010.449 9.404h29.78v41.796H151.527V52.279zm219.429 346.906c0 11.494-11.494 18.808-22.988 18.808H90.923c-11.494 0-22.988-7.314-22.988-18.808V99.822c1.066-11.964 10.978-21.201 22.988-21.42h39.706v26.645c.552 5.854 5.622 10.233 11.494 9.927h154.122a11.493 11.493 0 0012.016-9.927V78.401h39.706c12.009.22 21.922 9.456 22.988 21.42v299.364z" data-original="#000000" class="eactive-path" data-old_color="#000000" fill="#1AA8B3"/><path d="M179.217 233.569c-3.919-4.131-10.425-4.364-14.629-.522l-33.437 31.869-14.106-14.629c-3.919-4.131-10.425-4.363-14.629-.522a10.971 10.971 0 000 15.151l21.42 21.943a9.403 9.403 0 007.314 3.135 10.446 10.446 0 007.314-3.135l40.751-38.661c4.04-3.706 4.31-9.986.603-14.025a8.78 8.78 0 00-.601-.604zM329.16 256.034H208.997c-5.771 0-10.449 4.678-10.449 10.449s4.678 10.449 10.449 10.449H329.16c5.771 0 10.449-4.678 10.449-10.449s-4.678-10.449-10.449-10.449zM179.217 149.977c-3.919-4.131-10.425-4.364-14.629-.522l-33.437 31.869-14.106-14.629c-3.919-4.131-10.425-4.364-14.629-.522a10.971 10.971 0 000 15.151l21.42 21.943a9.403 9.403 0 007.314 3.135 10.446 10.446 0 007.314-3.135l40.751-38.661c4.04-3.706 4.31-9.986.603-14.025a8.78 8.78 0 00-.601-.604zM329.16 172.442H208.997c-5.771 0-10.449 4.678-10.449 10.449s4.678 10.449 10.449 10.449H329.16c5.771 0 10.449-4.678 10.449-10.449s-4.678-10.449-10.449-10.449zM179.217 317.16c-3.919-4.131-10.425-4.363-14.629-.522l-33.437 31.869-14.106-14.629c-3.919-4.131-10.425-4.363-14.629-.522a10.971 10.971 0 000 15.151l21.42 21.943a9.403 9.403 0 007.314 3.135 10.446 10.446 0 007.314-3.135l40.751-38.661c4.04-3.706 4.31-9.986.603-14.025a9.253 9.253 0 00-.601-.604zM329.16 339.626H208.997c-5.771 0-10.449 4.678-10.449 10.449s4.678 10.449 10.449 10.449H329.16c5.771 0 10.449-4.678 10.449-10.449s-4.678-10.449-10.449-10.449z" data-original="#000000" class="eactive-path" data-old_color="#000000" fill="#1AA8B3"/></svg><svg viewBox="0 0 779 495" id="files_svg" xmlns="http://www.w3.org/2000/svg"><defs><linearGradient id="fb" x1=".5" y1="1" x2=".5" gradientUnits="objectBoundingBox"><stop offset="0" stop-color="gray" stop-opacity=".251"/><stop offset=".54" stop-color="gray" stop-opacity=".122"/><stop offset="1" stop-color="gray" stop-opacity=".102"/></linearGradient><clipPath id="fa"><path data-name="Прямоугольник 95" transform="translate(984.666 816.313)" fill="#fff" stroke="#707070" d="M0 0h432v279H0z"/></clipPath></defs><g data-name="Сгруппировать 216"><path data-name="Прямоугольник 126" fill="#f1f5f7" d="M1 0h778v495H1z"/><path data-name="Контур 114" d="M0 0s281 23.481 281 146.97S0 493.957 0 493.957" fill="#fff"/><g data-name="Группа масок 27" transform="translate(-729.666 -708.313)" clip-path="url(#fa)"><g data-name="Сгруппировать 197"><path data-name="Прямоугольник 96" fill="url(#fb)" d="M0 0h118.267v163.406H0z" transform="translate(1241.794 931.907)" opacity=".5"/></g><path data-name="Прямоугольник 97" fill="#fff" d="M1243.3 933.111h115.258v159.795H1243.3z"/><g data-name="Сгруппировать 198"><path data-name="Прямоугольник 98" fill="url(#fb)" d="M0 0h118.267v163.406H0z" transform="translate(1230.873 926.038)" opacity=".5"/></g><path data-name="Прямоугольник 99" fill="#f5f5f5" d="M1232.379 927.242h115.258v159.795h-115.258z"/><g data-name="Сгруппировать 199"><path data-name="Прямоугольник 100" fill="url(#fb)" d="M0 0h118.267v163.406H0z" transform="translate(1220.601 920.661)" opacity=".5"/></g><path data-name="Прямоугольник 101" fill="#fff" d="M1222.108 921.865h115.258v159.795h-115.258z"/><path data-name="Прямоугольник 102" fill="#1aa8b3" d="M1232.708 948.536h31.953v2.933h-31.953z"/><path data-name="Прямоугольник 103" fill="#e0e0e0" d="M1232.708 958.808h93.901v2.933h-93.901z"/><path data-name="Прямоугольник 104" fill="#e0e0e0" d="M1232.708 969.076h73.033v2.933h-73.033z"/><path data-name="Прямоугольник 105" fill="#e0e0e0" d="M1232.708 979.348h86.237v2.933h-86.237z"/><path data-name="Прямоугольник 106" fill="#e0e0e0" d="M1242.655 989.62h76.294v2.933h-76.294z"/><path data-name="Прямоугольник 107" fill="#3ad29f" opacity=".3" d="M1249.99 999.888h60.157v2.933h-60.157z"/><path data-name="Прямоугольник 108" fill="#e0e0e0" d="M1242.655 1010.159h74.827v2.933h-74.827z"/><path data-name="Прямоугольник 109" fill="#e0e0e0" d="M1232.708 1020.427h93.901v2.933h-93.901z"/><path data-name="Прямоугольник 110" fill="#e0e0e0" d="M1232.708 1030.699h93.901v2.933h-93.901z"/><path data-name="Прямоугольник 111" fill="#e0e0e0" d="M1232.708 1040.971h93.901v2.933h-93.901z"/><path data-name="Прямоугольник 112" fill="#e0e0e0" d="M1232.708 1051.239h93.901v2.933h-93.901z"/><g data-name="Сгруппировать 200"><path data-name="Прямоугольник 113" fill="url(#fb)" d="M0 0h118.267v163.406H0z" transform="translate(1041.605 816)" opacity=".5"/></g><path data-name="Прямоугольник 114" fill="#fff" d="M1043.111 817.204h115.258v159.795h-115.258z"/><path data-name="Прямоугольник 115" fill="#e0e0e0" d="M1063.002 874.687h76.947v2.933h-76.947z"/><path data-name="Прямоугольник 116" fill="#e0e0e0" d="M1063.655 884.958h76.294v2.933h-76.294z"/><path data-name="Прямоугольник 117" fill="#e0e0e0" d="M1070.99 895.23h60.157v2.933h-60.157z"/><path data-name="Прямоугольник 118" fill="#e0e0e0" d="M1063.655 905.498h74.827v2.933h-74.827z"/><path data-name="Прямоугольник 119" fill="#e0e0e0" d="M1063.002 915.77h76.294v2.933h-76.294z"/><path data-name="Прямоугольник 120" fill="#e0e0e0" d="M1063.002 926.038h76.294v2.933h-76.294z"/><path data-name="Прямоугольник 121" fill="#e0e0e0" d="M1063.002 936.31h76.294v2.933h-76.294z"/><path data-name="Прямоугольник 122" fill="#e0e0e0" d="M1063.002 946.581h76.294v2.933h-76.294z"/><path data-name="Прямоугольник 123" fill="#1aa8b3" d="M1064.06 839.965h20.54v17.607h-20.54z"/><path data-name="Прямоугольник 124" fill="#e0e0e0" d="M1099.27 842.898h38.147v2.933h-38.147z"/><path data-name="Прямоугольник 125" fill="#3ad29f" opacity=".3" d="M1099.27 853.169h38.147v2.933h-38.147z"/><g data-name="Сгруппировать 201" opacity=".3" fill="none" stroke="#3ad29f" stroke-miterlimit="10" stroke-width=".862"><path data-name="Линия 1" d="M1175.163 853.169h2.189"/><path data-name="Линия 2" stroke-dasharray="11.69 11.69" d="M1181.616 853.169h83.126"/><path data-name="Контур 107" d="M1266.875 853.169h2.189v2.189"/><path data-name="Линия 3" stroke-dasharray="12.8 12.8" d="M1269.064 860.027V904.4"/><path data-name="Линия 4" d="M1269.064 906.734v2.189"/></g><g data-name="Сгруппировать 202" opacity=".3" fill="none" stroke="#3ad29f" stroke-miterlimit="10" stroke-width=".862"><path data-name="Линия 5" d="M1208.907 1048.306h-2.189"/><path data-name="Линия 6" stroke-dasharray="11.69 11.69" d="M1202.454 1048.306h-83.126"/><path data-name="Контур 108" d="M1117.192 1048.306h-2.186v-2.189"/><path data-name="Линия 7" stroke-dasharray="12.8 12.8" d="M1115.006 1041.445v-44.37"/><path data-name="Линия 8" d="M1115.006 994.741v-2.189"/></g><path data-name="Контур 109" d="M1229.074 876.602a1.339 1.339 0 01-.73-1.62.645.645 0 00.029-.15.671.671 0 00-1.207-.445.644.644 0 00-.073.131 1.339 1.339 0 01-1.62.73.645.645 0 00-.15-.029.671.671 0 00-.445 1.207.646.646 0 00.131.073 1.339 1.339 0 01.73 1.62.645.645 0 00-.029.15.671.671 0 001.207.445.647.647 0 00.073-.131 1.339 1.339 0 011.62-.73.647.647 0 00.15.029.671.671 0 00.445-1.207.646.646 0 00-.131-.073z" fill="#1aa8b3" opacity=".3"/><path data-name="Контур 110" d="M1182.09 909.842a2.823 2.823 0 01-1.572-3.429 1.357 1.357 0 00.062-.314 1.415 1.415 0 00-2.553-.937 1.358 1.358 0 00-.157.277 2.823 2.823 0 01-3.414 1.572 1.357 1.357 0 00-.314-.062 1.415 1.415 0 00-.937 2.553 1.357 1.357 0 00.277.157 2.823 2.823 0 011.572 3.414 1.358 1.358 0 00-.062.314 1.415 1.415 0 002.553.937 1.356 1.356 0 00.157-.277 2.823 2.823 0 013.414-1.572 1.357 1.357 0 00.314.062 1.415 1.415 0 00.937-2.553 1.356 1.356 0 00-.277-.142z" fill="#1aa8b3" opacity=".3"/><path data-name="Контур 111" d="M1210.91 1005.483a2.823 2.823 0 01-3.246-1.893 1.353 1.353 0 00-.128-.292 1.415 1.415 0 00-2.623.689 1.357 1.357 0 00.029.317 2.823 2.823 0 01-1.893 3.246 1.357 1.357 0 00-.292.128 1.415 1.415 0 00.689 2.623 1.358 1.358 0 00.317-.029 2.823 2.823 0 013.246 1.893 1.356 1.356 0 00.128.292 1.415 1.415 0 002.623-.689 1.357 1.357 0 00-.029-.317 2.823 2.823 0 011.893-3.246 1.357 1.357 0 00.292-.128 1.415 1.415 0 00-.689-2.623 1.357 1.357 0 00-.317.029z" fill="#1aa8b3" opacity=".3"/><path data-name="Контур 112" d="M1153.204 1024.326a1.339 1.339 0 01-.729-1.62.644.644 0 00.029-.15.671.671 0 00-1.207-.445.646.646 0 00-.073.131 1.339 1.339 0 01-1.62.73.645.645 0 00-.15-.029.671.671 0 00-.445 1.207.65.65 0 00.131.073 1.339 1.339 0 01.73 1.62.646.646 0 00-.029.15.671.671 0 001.207.445.645.645 0 00.073-.131 1.339 1.339 0 011.62-.73.644.644 0 00.15.029.671.671 0 00.445-1.207.649.649 0 00-.131-.073z" fill="#1aa8b3" opacity=".3"/></g></g></svg><svg viewBox="0 0 150 30" id="logo" xmlns="http://www.w3.org/2000/svg"><defs><clipPath id="ga"><path data-name="Прямоугольник 64" transform="translate(5050 -698)" fill="#fff" stroke="#707070" d="M0 0h150v30H0z"/></clipPath></defs><g transform="translate(-5050 698)" clip-path="url(#ga)"><path data-name="Контур 84" d="M5094.002-685.065h-7.424l1.658-2.722h4.159l-2.722-4.5-7.078 11.601h-3.514l8.514-14.179a3.806 3.806 0 011.064-1.114 2.023 2.023 0 011.015-.421 1.751 1.751 0 011.064.322 4.027 4.027 0 011.138 1.188l8.34 14.181h-3.521l-2.648-4.38zm15 4.405a7.521 7.521 0 01-5.89-2.5 8.087 8.087 0 01-2-5.494 7.527 7.527 0 011.93-5.271 7.633 7.633 0 015.964-2.4h8.835v2.72h-8.846a4.981 4.981 0 00-3.811 1.559 5.178 5.178 0 00-1.386 3.391 5.091 5.091 0 001.213 3.613 4.947 4.947 0 003.96 1.658h8.835v2.719h-8.811zm19.425-12.945v12.94h-2.722v-12.94h-6.187v-2.722h15.1v2.722h-6.187zm10.768 12.94h-2.722v-15.662h2.722zm9.083 0h4.034l-9.355-7.672 9.355-7.994h-4.034l-7.8 6.682a1.382 1.382 0 000 2.5l7.8 6.509zm13.287-12.94a4.981 4.981 0 00-3.811 1.559 5.178 5.178 0 00-1.386 3.391 5.091 5.091 0 001.213 3.613 4.947 4.947 0 003.96 1.658h4.38a5.111 5.111 0 10-.026-10.221h-4.33zm0 12.943a7.521 7.521 0 01-5.89-2.5 8.087 8.087 0 01-2-5.494 7.527 7.527 0 011.93-5.271 7.633 7.633 0 015.964-2.4h4.38a7.633 7.633 0 015.964 2.4 7.527 7.527 0 011.93 5.271 8.087 8.087 0 01-2 5.494 7.441 7.441 0 01-5.89 2.5zm24.253-.817l-5.247-10.122-2.276 10.989h-3.069l3.49-14.379a1.762 1.762 0 011.633-1.559c.619-.049 1.213.47 1.757 1.534l5.247 10.251 5.222-10.271c.544-1.064 1.138-1.584 1.757-1.534a1.761 1.761 0 011.633 1.534l3.49 14.4h-3.069l-2.276-10.989-5.247 10.122a1.668 1.668 0 01-1.485 1.039 1.7 1.7 0 01-1.584-1.039z" fill="#2b2a29"/><path data-name="Контур 85" d="M5068.116-675.588l-3.267 5.323c0 .025-.025.025-.025.049v.025a1.937 1.937 0 01-3.292-.049l-3.044-4.925a9.442 9.442 0 004.356-1.93 3.662 3.662 0 003.366 2.054 4.485 4.485 0 001.955-.495zm-8.021-20.145a1.976 1.976 0 00-1.683-.965h-3.217a1.954 1.954 0 00-1.683.94l-3.217 5.222a1.888 1.888 0 00-.3 1.039 2.034 2.034 0 00.371 1.163l3.292 5.37a6.588 6.588 0 011.584-.965 32.074 32.074 0 017.573-2.128v-.916a9.58 9.58 0 00-.4-3.168 1.736 1.736 0 00-1.856-1.089 1.853 1.853 0 00-1.584.619 7.684 7.684 0 00-.965 1.93c-.569 1.609-1.411 2.425-2.524 2.425a2.184 2.184 0 01-1.485-.569 1.735 1.735 0 01-.643-1.411 3.027 3.027 0 01.792-1.881 5.938 5.938 0 012.549-1.584 13.257 13.257 0 014.455-.643c.371 0 .742 0 1.089.025l-2.128-3.465zm7.6 12.349l1.881 3.069c.594.94.718 1.188.124 2.128l-.346.569a2.362 2.362 0 01-.52.1c-.495 0-.817-.148-.94-.47a4.693 4.693 0 01-.223-1.435v-3.936zm-4.9-1.138a8.672 8.672 0 00-4.034 1.361 3.686 3.686 0 00-1.609 3.316 2.94 2.94 0 00.619 1.955 2.211 2.211 0 001.757.767 4.392 4.392 0 003.267-1.881z" fill="#2b2a29" fill-rule="evenodd"/><path data-name="Контур 86" d="M5075.342-696.699a1.28 1.28 0 011.114 1.98l-4.925 8.018a1.3 1.3 0 01-2.227 0l-4.925-8.018a1.28 1.28 0 011.116-1.98h9.85z" fill="#008b9a" fill-rule="evenodd"/><path data-name="Контур 87" d="M5078.757-675.489h.866v.52a1.212 1.212 0 01.445-.421 1.384 1.384 0 01.643-.173 1.361 1.361 0 011.039.47 2.009 2.009 0 01.421 1.336 2.034 2.034 0 01-.421 1.361 1.35 1.35 0 01-1.039.495 1.151 1.151 0 01-.52-.124 1.644 1.644 0 01-.495-.4v1.76h-.916v-4.824zm.916 1.683a1.347 1.347 0 00.223.866.727.727 0 001.114.025 1.269 1.269 0 00.223-.841 1.239 1.239 0 00-.223-.817.692.692 0 00-.544-.272.669.669 0 00-.569.272 1.136 1.136 0 00-.224.767zm5.247.693l.916.148a1.407 1.407 0 01-.569.767 1.65 1.65 0 01-.965.272 1.5 1.5 0 01-1.336-.594 2.067 2.067 0 01-.346-1.213 1.961 1.961 0 01.445-1.361 1.516 1.516 0 011.138-.495 1.554 1.554 0 011.237.52 2.247 2.247 0 01.421 1.584h-2.3a.884.884 0 00.223.643.728.728 0 00.544.223.608.608 0 00.371-.124.68.68 0 00.221-.37zm.049-.94a.926.926 0 00-.2-.619.585.585 0 00-.47-.2.623.623 0 00-.495.223.9.9 0 00-.2.594h1.361zm1.633-1.435h.916v1.435a.491.491 0 00.322-.148 1.33 1.33 0 00.223-.495 1.342 1.342 0 01.4-.668.941.941 0 01.544-.148 2.447 2.447 0 01.371.025v.619a.945.945 0 00-.47.074.9.9 0 00-.223.421.858.858 0 01-.47.594 1.2 1.2 0 01.742.767c0 .025.025.049.025.074l.52.965h-.99l-.47-1.015a1.209 1.209 0 00-.247-.4.528.528 0 00-.3-.074v1.487h-.916v-3.49zm3.737 0h3.094v3.49h-.916v-2.749h-1.262v1.559a1.758 1.758 0 01-.148.841.95.95 0 01-.3.322 1.417 1.417 0 01-.544.074c-.148 0-.346-.025-.594-.049v-.665h.371c.124 0 .2-.049.223-.124a3.165 3.165 0 00.049-.693v-2zm4.727 1.064l-.841-.148a1.176 1.176 0 01.495-.742 1.661 1.661 0 011.015-.247 2.119 2.119 0 01.916.148.9.9 0 01.421.371 1.989 1.989 0 01.124.817v1.089a3.854 3.854 0 00.049.668 1.374 1.374 0 00.173.47h-.916c-.025-.074-.049-.148-.1-.272a.247.247 0 01-.025-.1 1.635 1.635 0 01-.495.346 1.468 1.468 0 01-.569.124 1.125 1.125 0 01-.841-.3 1.029 1.029 0 01-.322-.742.915.915 0 01.148-.52.9.9 0 01.4-.346 4.613 4.613 0 01.742-.223 4.516 4.516 0 00.891-.223v-.1a.512.512 0 00-.124-.371.8.8 0 00-.495-.124.628.628 0 00-.4.1.606.606 0 00-.223.346zm1.237.742c-.124.049-.3.074-.569.148a1.7 1.7 0 00-.495.148.361.361 0 00-.173.322.489.489 0 00.148.346.5.5 0 00.371.148.694.694 0 00.47-.173.532.532 0 00.223-.3 1.9 1.9 0 00.025-.445v-.2zm1.831-1.807h1.138l.866 2.425.866-2.425h1.138v3.49h-.792v-2.3l-.841 2.3h-.792l-.817-2.3v2.3h-.792v-3.49zm4.925 0h.916v1.287h1.312v-1.287h.916v3.49h-.916v-1.46h-1.312v1.46h-.916zm3.885 1.683a1.977 1.977 0 01.223-.891 1.672 1.672 0 01.643-.668 1.955 1.955 0 01.94-.223 1.7 1.7 0 011.287.52 1.735 1.735 0 01.495 1.312 1.791 1.791 0 01-.52 1.312 1.735 1.735 0 01-1.287.52 2 2 0 01-.916-.223 1.406 1.406 0 01-.668-.643 2.121 2.121 0 01-.223-1.015zm.94.049a1.088 1.088 0 00.247.792.843.843 0 00.619.272.753.753 0 00.594-.272 1.088 1.088 0 00.247-.792 1.127 1.127 0 00-.247-.792.832.832 0 00-.594-.272.843.843 0 00-.619.272 1.088 1.088 0 00-.245.792zm3.267.47v-.916h1.807v.916zm2.3-2.2h3.094v3.49h-.916v-2.75h-1.262V-672h-.916zm4.083 0h.866v.52a1.212 1.212 0 01.445-.421 1.384 1.384 0 01.65-.177 1.361 1.361 0 011.039.47 2.009 2.009 0 01.421 1.336 2.034 2.034 0 01-.421 1.361 1.35 1.35 0 01-1.039.495 1.15 1.15 0 01-.52-.124 1.644 1.644 0 01-.495-.4v1.762h-.916v-4.824zm.916 1.683a1.347 1.347 0 00.223.866.727.727 0 001.114.025 1.269 1.269 0 00.223-.841 1.239 1.239 0 00-.223-.817.692.692 0 00-.544-.272.669.669 0 00-.569.272 1.136 1.136 0 00-.22.765zm3.019 0a1.977 1.977 0 01.223-.891 1.672 1.672 0 01.643-.668 1.955 1.955 0 01.94-.223 1.7 1.7 0 011.287.52 1.735 1.735 0 01.495 1.312 1.791 1.791 0 01-.52 1.312 1.735 1.735 0 01-1.287.52 2 2 0 01-.916-.223 1.406 1.406 0 01-.668-.643 2.12 2.12 0 01-.223-1.015zm.94.049a1.088 1.088 0 00.247.792.843.843 0 00.619.272.753.753 0 00.594-.272 1.088 1.088 0 00.247-.792 1.127 1.127 0 00-.247-.792.832.832 0 00-.594-.272.843.843 0 00-.619.272 1.088 1.088 0 00-.243.79zm3.366-1.732h.891v2.2l1.411-2.2h.916v3.49h-.891v-2.23l-1.435 2.227h-.891zm5.1 2.054v-.594a1.315 1.315 0 00.346-.025.385.385 0 00.2-.148.372.372 0 00.1-.272.457.457 0 00-.124-.3.434.434 0 00-.371-.148.685.685 0 00-.322.074c-.1.049-.173.173-.272.371l-.792-.173a1.106 1.106 0 01.495-.693 1.7 1.7 0 01.891-.223 1.408 1.408 0 01.965.3.952.952 0 01.346.718.691.691 0 01-.148.445 1.538 1.538 0 01-.47.346 1.152 1.152 0 01.569.322.815.815 0 01.2.544.859.859 0 01-.371.693 1.729 1.729 0 01-1.089.3 1.394 1.394 0 01-1.533-.969l.841-.148a.7.7 0 00.668.52.582.582 0 00.421-.148.436.436 0 00.148-.322.361.361 0 00-.173-.322.708.708 0 00-.421-.124h-.148zm2.4-2.054h2.029a1.65 1.65 0 01.94.223.814.814 0 01.322.693.777.777 0 01-.173.52.828.828 0 01-.421.3.924.924 0 01.544.322.891.891 0 01.173.544.847.847 0 01-.3.668 1.321 1.321 0 01-.891.247h-2.2v-3.495zm.94 1.46h.594a1.666 1.666 0 00.619-.1.4.4 0 00.2-.346.336.336 0 00-.173-.322 1.325 1.325 0 00-.643-.1h-.594zm0 1.46h.718a1.114 1.114 0 00.569-.1.351.351 0 00.173-.346.344.344 0 00-.2-.346 2.021 2.021 0 00-.817-.1h-.47v.894zm2.9-1.213a1.977 1.977 0 01.223-.891 1.672 1.672 0 01.643-.668 1.955 1.955 0 01.94-.223 1.7 1.7 0 011.287.52 1.735 1.735 0 01.495 1.312 1.791 1.791 0 01-.52 1.312 1.735 1.735 0 01-1.287.52 2 2 0 01-.916-.223 1.406 1.406 0 01-.668-.643 2.12 2.12 0 01-.223-1.015zm.94.049a1.088 1.088 0 00.247.792.843.843 0 00.619.272.753.753 0 00.594-.272 1.088 1.088 0 00.247-.792 1.127 1.127 0 00-.247-.792.832.832 0 00-.594-.272.843.843 0 00-.619.272 1.088 1.088 0 00-.248.791zm6.162 1.757h-2.648v.916h-.742v-1.684h.371a2.088 2.088 0 00.4-.817 8.076 8.076 0 00.173-1.906h2.821v2.722h.371v1.683h-.742zm-.544-.767v-1.98h-1.114a3.753 3.753 0 01-.47 1.98zm4.875-1.708l-.916.173a.746.746 0 00-.2-.421.582.582 0 00-.421-.148.637.637 0 00-.544.247 1.13 1.13 0 00-.2.792 1.43 1.43 0 00.2.866.684.684 0 00.569.247.582.582 0 00.421-.148.855.855 0 00.247-.52l.916.148a1.546 1.546 0 01-.544.94 1.607 1.607 0 01-1.064.322 1.55 1.55 0 01-1.213-.47 2.227 2.227 0 010-2.673 1.6 1.6 0 011.237-.47 1.761 1.761 0 011.015.272 1.615 1.615 0 01.544.841zm.3-1.039h3.168v.742h-1.121v2.747h-.916v-2.748h-1.114v-.742zm3.712 0h2.029a1.65 1.65 0 01.94.223.814.814 0 01.322.693.777.777 0 01-.173.52.828.828 0 01-.421.3.924.924 0 01.544.322.891.891 0 01.173.544.847.847 0 01-.3.668 1.321 1.321 0 01-.891.247h-2.2v-3.494zm.94 1.46h.594a1.666 1.666 0 00.619-.1.4.4 0 00.2-.346.336.336 0 00-.173-.322 1.325 1.325 0 00-.643-.1h-.602zm0 1.46h.718a1.114 1.114 0 00.569-.1.351.351 0 00.173-.346.344.344 0 00-.2-.346 2.021 2.021 0 00-.817-.1h-.47v.895zm5.123-.52l.916.148a1.407 1.407 0 01-.569.767 1.65 1.65 0 01-.965.272 1.5 1.5 0 01-1.336-.594 2.067 2.067 0 01-.346-1.213 1.961 1.961 0 01.445-1.361 1.516 1.516 0 011.138-.495 1.554 1.554 0 011.237.52 2.247 2.247 0 01.421 1.584h-2.3a.884.884 0 00.223.643.728.728 0 00.544.223.608.608 0 00.371-.124.68.68 0 00.218-.371zm.049-.94a.926.926 0 00-.2-.619.585.585 0 00-.47-.2.623.623 0 00-.495.223.9.9 0 00-.2.594h1.361zm1.633-1.435h.916v1.287h1.312v-1.289h.916v3.49h-.916v-1.46h-1.312v1.46h-.916zm4.059 0h.916v1.287h1.312v-1.289h.916v3.49h-.916v-1.46h-1.312v1.46h-.916zm4.8 1.064l-.841-.148a1.176 1.176 0 01.495-.742 1.661 1.661 0 011.015-.247 2.119 2.119 0 01.916.148.9.9 0 01.421.371 1.989 1.989 0 01.124.817v1.089a3.854 3.854 0 00.049.668 1.374 1.374 0 00.173.47h-.921c-.025-.074-.049-.148-.1-.272a.247.247 0 01-.025-.1 1.635 1.635 0 01-.495.346 1.468 1.468 0 01-.569.124 1.164 1.164 0 01-.841-.3 1.029 1.029 0 01-.322-.742.915.915 0 01.148-.52.9.9 0 01.4-.346 4.613 4.613 0 01.742-.223 4.516 4.516 0 00.891-.223v-.1a.512.512 0 00-.124-.371.8.8 0 00-.495-.124.628.628 0 00-.4.1.606.606 0 00-.223.346zm1.237.742c-.124.049-.3.074-.569.148a1.7 1.7 0 00-.495.148.361.361 0 00-.173.322.489.489 0 00.148.346.5.5 0 00.371.148.694.694 0 00.47-.173.532.532 0 00.223-.3 1.9 1.9 0 00.025-.445v-.2zm4.8-1.807v3.49h-.916v-1.461h-.074a1.034 1.034 0 00-.445.074.97.97 0 00-.322.322l-.049.074-.619.965h-1.064l.668-1.015a1.158 1.158 0 01.52-.495.921.921 0 01-.619-.3 1.073 1.073 0 01-.247-.693 1.025 1.025 0 01.148-.569.779.779 0 01.421-.322 3.154 3.154 0 01.792-.074zm-.916.594h-.668a.914.914 0 00-.52.1.385.385 0 00-.148.346.374.374 0 00.173.346 1.068 1.068 0 00.544.1h.594v-.891zm5.742-1.93h.916v1.782a1.5 1.5 0 01.4-.4 1.151 1.151 0 01.52-.124 1.03 1.03 0 01.916.544 2.261 2.261 0 01.346 1.312 2.044 2.044 0 01-.4 1.287 1.159 1.159 0 01-.94.52 1.024 1.024 0 01-.47-.124 1.113 1.113 0 01-.4-.371v1.732h-.916v-1.729a1.468 1.468 0 01-.421.371 1.092 1.092 0 01-1.435-.4 2.219 2.219 0 01-.371-1.312 1.962 1.962 0 01.421-1.287 1.187 1.187 0 01.916-.52 1.126 1.126 0 01.495.124 1.113 1.113 0 01.4.371v-1.752zm-.619 1.955a.529.529 0 00-.445.3 1.89 1.89 0 00-.025 1.633.483.483 0 00.891 0 1.563 1.563 0 00.2-.841 1.448 1.448 0 00-.2-.841.551.551 0 00-.421-.272zm2.153 0a.519.519 0 00-.47.322 1.661 1.661 0 00-.173.817 1.5 1.5 0 00.2.792.529.529 0 00.445.3.513.513 0 00.445-.322 1.536 1.536 0 00.2-.767 1.5 1.5 0 00-.173-.792.519.519 0 00-.47-.322zm2.326-.643h.891v2.2l1.411-2.2h.916v3.49h-.891v-2.229l-1.435 2.227h-.891zm4.133 0h.866v.52a1.212 1.212 0 01.445-.421 1.384 1.384 0 01.643-.173 1.361 1.361 0 011.039.47 2.009 2.009 0 01.421 1.336 2.034 2.034 0 01-.421 1.361 1.35 1.35 0 01-1.039.495 1.15 1.15 0 01-.52-.124 1.644 1.644 0 01-.495-.4v1.759h-.916v-4.824zm.916 1.683a1.347 1.347 0 00.223.866.727.727 0 001.114.025 1.269 1.269 0 00.223-.841 1.238 1.238 0 00-.223-.817.692.692 0 00-.544-.272.669.669 0 00-.569.272 1.136 1.136 0 00-.223.766zm3.168-1.683h1.138l.866 2.425.866-2.425h1.138v3.49h-.792v-2.3l-.841 2.3h-.792l-.817-2.3v2.3h-.792v-3.49zm5.544 1.064l-.841-.148a1.176 1.176 0 01.495-.742 1.661 1.661 0 011.015-.247 2.119 2.119 0 01.916.148.9.9 0 01.421.371 1.989 1.989 0 01.124.817v1.089a3.854 3.854 0 00.049.668 1.374 1.374 0 00.173.47h-.916c-.025-.074-.049-.148-.1-.272a.247.247 0 01-.025-.1 1.635 1.635 0 01-.495.346 1.468 1.468 0 01-.569.124 1.125 1.125 0 01-.841-.3 1.029 1.029 0 01-.322-.742.915.915 0 01.148-.52.9.9 0 01.4-.346 4.614 4.614 0 01.742-.223 4.516 4.516 0 00.891-.223v-.1a.512.512 0 00-.124-.371.8.8 0 00-.495-.124.628.628 0 00-.4.1.606.606 0 00-.223.346zm1.237.742c-.124.049-.3.074-.569.148a1.7 1.7 0 00-.495.148.361.361 0 00-.173.322.489.489 0 00.148.346.5.5 0 00.371.148.694.694 0 00.47-.173.532.532 0 00.223-.3 1.9 1.9 0 00.025-.445v-.2z" fill="#008b9a"/></g></svg></svg>